<svg
  fill="none"
  version="1.1"
  viewBox="0 0 24 24"
  xmlns="http://www.w3.org/2000/svg"
>
  <g
    stroke="currentColor"
    stroke-linecap="round"
    stroke-linejoin="round"
    stroke-width="2"
  >
    <path d="m9 2s-7 2-7 7v6c0 5 2 7 7 7h6c5 0 7-2 7-7v-2" />
    <path
      d="m16.04 3.02-7.88 7.88c-0.3 0.3-0.6 0.89-0.66 1.32l-0.43 3.01c-0.16 1.09 0.61 1.85 1.7 1.7l3.01-0.43c0.42-0.06 1.01-0.36 1.32-0.66l7.88-7.88c1.36-1.36 2-2.94 0-4.94s-3.58-1.36-4.94 0z"
      stroke-miterlimit="10"
    />
    <path
      d="m14.91 4.15c0.67 2.39 2.54 4.26 4.94 4.94"
      stroke-miterlimit="10"
    />
  </g>
</svg>
