<svg width="150" height="150" viewBox="0 0 150 150" fill="none" xmlns="http://www.w3.org/2000/svg">
<path d="M54.3001 115.38C45.7501 111.18 37.9501 107.46 28.6201 104.49C33.4501 101.28 33.7201 93.06 34.5301 87.33C37.1401 68.88 55.4401 57.12 69.6601 47.4C70.8601 46.56 72.0901 45.78 73.3801 45.06C74.8801 44.25 79.0801 41.73 80.1901 44.07C81.2401 46.29 78.6301 50.37 77.3101 51.99C78.1801 50.7 79.1401 49.47 80.1901 48.33C80.5501 47.94 80.9401 47.52 81.4801 47.4C82.4401 47.19 83.3401 48.09 83.4901 49.05C83.6401 50.01 83.2201 50.97 82.8001 51.84C81.7501 53.94 80.4001 55.89 78.8701 57.66C79.9201 56.49 83.7901 52.05 83.7001 56.52C83.6401 59.34 82.4401 62.04 80.4301 63.99C81.3301 63.21 82.2901 62.49 83.3101 61.89C83.6101 61.65 83.9701 61.56 84.3301 61.62C84.7201 61.74 84.9301 62.19 85.0201 62.61C85.6501 65.49 84.0601 67.53 82.9801 69.99C82.1401 71.91 81.6301 73.71 80.5501 75.57C76.6201 82.26 72.4501 88.8 67.9501 95.13C66.7501 96.75 54.3601 115.41 54.3001 115.38Z" fill="white"/>
<path d="M54.3294 115.62C54.2994 115.62 54.2394 115.59 54.2094 115.59C45.2394 111.21 37.6494 107.61 28.5594 104.7L28.1094 104.55L28.4994 104.28C32.5794 101.58 33.3594 95.04 33.9894 89.82C34.1094 88.92 34.1994 88.08 34.3194 87.27C36.8394 69.45 54.0594 57.72 67.8894 48.33L69.5394 47.19C70.7394 46.35 71.9994 45.57 73.2894 44.85L73.6194 44.67C75.0294 43.89 77.6694 42.45 79.3194 42.99C79.7994 43.14 80.1894 43.5 80.3994 43.95C80.9694 45.18 80.5494 46.83 79.8594 48.33L80.0094 48.15C80.3994 47.73 80.8194 47.28 81.3894 47.16C81.8394 47.07 82.3194 47.16 82.7094 47.43C83.2194 47.79 83.5794 48.36 83.6994 48.99C83.8494 50.01 83.4294 51 82.9794 51.93C82.4394 53.01 81.8094 54.06 81.1494 55.05C81.8994 54.48 82.5894 54.18 83.0994 54.39C83.6094 54.6 83.9094 55.32 83.8794 56.52C83.8194 58.65 83.1594 60.69 81.9594 62.46C82.3194 62.19 82.7094 61.95 83.0994 61.71C83.4894 61.47 83.8794 61.29 84.2994 61.41C84.7194 61.53 84.9894 61.92 85.1394 62.58C85.6794 64.95 84.7494 66.72 83.7894 68.61C83.5494 69.09 83.2794 69.6 83.0694 70.11C82.7694 70.77 82.4994 71.43 82.2594 72.09C81.8094 73.32 81.2694 74.55 80.6094 75.69C76.3494 82.95 72.2094 89.34 68.0094 95.28C67.4394 96.06 64.1994 100.95 61.0194 105.69C59.3694 108.18 57.7194 110.64 56.4894 112.47L54.9894 114.69C54.5394 115.47 54.4194 115.62 54.3294 115.62ZM29.0994 104.4C37.9794 107.28 45.4494 110.79 54.2394 115.08C54.8394 114.24 57.8094 109.77 60.7194 105.42C63.8694 100.68 67.1394 95.79 67.7094 95.01C71.9094 89.1 76.0194 82.71 80.2794 75.48C80.9094 74.34 81.4494 73.17 81.8994 71.94C82.1394 71.28 82.4094 70.62 82.7094 69.93C82.9494 69.42 83.1894 68.91 83.4594 68.4C84.3894 66.57 85.2594 64.86 84.7494 62.67C84.6894 62.34 84.5094 61.95 84.2094 61.83C83.9094 61.8 83.6094 61.89 83.3694 62.07C82.3494 62.67 81.4194 63.36 80.5194 64.14L80.2194 63.81C82.2294 61.89 83.3694 59.25 83.4294 56.49C83.4594 55.5 83.2794 54.93 82.9194 54.78C82.2894 54.54 80.9694 55.53 79.0194 57.72L78.9894 57.75V57.78L78.6594 57.48V57.45C80.1894 55.71 81.5094 53.79 82.5594 51.72C82.9794 50.85 83.3694 49.95 83.2494 49.05C83.1594 48.54 82.8894 48.09 82.4694 47.79C82.1994 47.58 81.8394 47.52 81.5094 47.58C81.0594 47.67 80.6994 48.06 80.3394 48.42C79.7394 49.08 79.1394 49.8 78.5994 50.52C78.0294 51.42 77.5494 52.02 77.4894 52.08L77.1294 51.81C77.5194 51.24 77.9094 50.7 78.3294 50.19C79.5594 48.27 80.7594 45.69 80.0094 44.13C79.8594 43.77 79.5594 43.5 79.1694 43.38C77.7294 42.9 75.0894 44.34 73.8294 45.03L73.4994 45.21C72.2394 45.93 70.9794 46.71 69.8094 47.55L68.1294 48.69C54.3594 58.05 37.2594 69.69 34.7694 87.33C34.6494 88.14 34.5594 88.98 34.4394 89.85C33.8094 95.07 33.0294 101.46 29.0994 104.4Z" fill="#231F20"/>
<path d="M14.7598 116.25L29.1298 98.8199L58.7698 111.9L50.0398 131.16L14.7598 116.25Z" fill="#231F20"/>
<path d="M51.96 118.32C51.93 118.32 51.9 118.32 51.87 118.29L26.79 106.56C26.67 106.5 26.64 106.38 26.67 106.26C26.73 106.14 26.85 106.11 26.97 106.14L52.05 117.84C52.17 117.9 52.2 118.02 52.17 118.14C52.11 118.29 52.05 118.32 51.96 118.32Z" fill="white"/>
<path d="M119.7 26.1H90.6299V47.55H119.7V26.1Z" fill="white"/>
<path d="M119.94 47.76H90.4199V25.86H119.94V47.76ZM90.8699 47.34H119.49V26.34H90.8699V47.34Z" fill="#D1D3D4"/>
<path d="M115.14 32.9099C115.05 33.0599 114.96 33.1799 114.87 33.2999C111.54 36.6299 108.18 39.9899 104.82 43.3199C104.49 43.6499 104.22 43.6499 103.86 43.3199C101.97 41.3699 100.08 39.4499 98.2203 37.4999C97.9803 37.3199 97.9203 36.9599 98.1303 36.7199C98.1603 36.6599 98.2203 36.6299 98.2803 36.5999L99.6903 35.3399C99.8703 35.0999 100.23 35.0699 100.44 35.2799C100.47 35.3099 100.5 35.3399 100.53 35.3699L103.86 38.7599C104.22 39.1199 104.46 39.1199 104.82 38.7599L112.62 30.9899C112.95 30.6599 113.22 30.6599 113.55 30.9899C114 31.4399 114.42 31.8599 114.87 32.3099C114.96 32.4299 115.05 32.5499 115.14 32.6699V32.9099Z" fill="#68E1FD"/>
<path d="M90.3601 59.55C90.2401 59.55 90.1201 59.46 90.1201 59.31C90.1201 59.16 90.2101 59.07 90.3601 59.07C92.9101 58.83 94.8901 57.81 96.3001 56.01C99.5101 51.9 98.5201 45.3 98.4901 45C98.4601 44.88 98.5501 44.76 98.6701 44.76C98.7901 44.73 98.9101 44.82 98.9401 44.94C98.9701 45.24 99.9901 52.02 96.6601 56.28C95.1901 58.17 93.0901 59.25 90.4201 59.52L90.3601 59.55Z" fill="#D1D3D4"/>
<path d="M35.67 23.1L69.87 14.67C70.68 14.46 71.52 14.97 71.73 15.78L89.25 86.91C89.46 87.72 88.95 88.56 88.14 88.77L53.94 97.2C53.13 97.41 52.29 96.9 52.08 96.09L34.56 24.93C34.35 24.12 34.86 23.28 35.67 23.1Z" fill="white"/>
<path d="M53.5497 97.47C52.7397 97.47 52.0497 96.93 51.8397 96.15L34.3497 24.99C34.1097 24.06 34.6797 23.1 35.6397 22.86L69.8397 14.43C70.7697 14.19 71.7297 14.76 71.9697 15.72L89.4897 86.85C89.6097 87.3 89.5197 87.78 89.2797 88.17C89.0397 88.56 88.6497 88.86 88.1997 88.95L53.9997 97.38C53.8197 97.44 53.6997 97.47 53.5497 97.47ZM70.2597 14.85C70.1697 14.85 70.0497 14.85 69.9597 14.88L35.7597 23.31C35.0697 23.49 34.6197 24.18 34.7997 24.87L52.2897 96C52.4697 96.69 53.1597 97.11 53.8797 96.96L88.0797 88.53C88.7697 88.35 89.2197 87.66 89.0397 86.97L71.5197 15.84C71.3697 15.27 70.8597 14.85 70.2597 14.85Z" fill="#231F20"/>
<path d="M71.0506 21.4826L37.7842 29.6708L51.823 86.7073L85.0895 78.5192L71.0506 21.4826Z" fill="#68E1FD"/>
<path d="M60.2397 49.65H60.1797L59.9697 49.59C56.0397 48.87 52.7997 47.16 50.3397 44.55C49.1097 43.26 48.1197 41.76 47.3997 40.11C47.0097 39.24 46.7097 38.31 46.4997 37.35L46.4697 37.32V37.2C46.4697 37.11 46.5597 37.02 46.6497 36.99C46.8897 36.9 47.0997 36.78 47.3397 36.66C48.5097 36 49.2897 35.16 49.6497 34.08C49.9497 33.24 49.9497 32.34 49.6797 31.5L49.6197 31.29L49.7997 31.2L51.2097 30.6C51.8097 30.33 52.4097 30.09 52.9797 29.82C54.2097 29.28 55.4997 28.92 56.8197 28.77C57.7797 28.68 58.7697 28.59 59.6697 28.53H59.7297C60.2097 28.5 60.6897 28.47 61.1997 28.41H61.3797L61.4697 28.77C61.5297 29.01 61.6197 29.28 61.7097 29.49C62.1597 30.51 62.9997 31.32 64.0497 31.71C64.8597 32.01 65.7297 32.13 66.5997 32.07H66.6297C66.6897 32.07 66.7797 32.07 66.8397 32.1L67.0197 32.19L66.9897 32.28C66.9897 32.31 66.9897 32.34 67.0197 32.34C67.4397 33.87 67.5897 35.43 67.4997 37.02C67.2597 41.31 65.4597 45.06 62.1297 48.21C61.7697 48.54 61.4097 48.87 61.0497 49.17L60.6897 49.47L60.5397 49.59L60.2397 49.65ZM46.9197 37.35C47.1297 38.25 47.3997 39.12 47.7897 39.96C48.5097 41.55 49.4697 42.99 50.6697 44.25C53.0697 46.8 56.2497 48.45 60.0597 49.17C60.1197 49.17 60.1797 49.2 60.2397 49.2L60.3297 49.14L60.6897 48.84C61.0497 48.54 61.4097 48.24 61.7697 47.91C65.0097 44.85 66.7497 41.19 66.9897 37.02C67.0797 35.52 66.9297 33.99 66.5397 32.55C66.3597 32.55 66.2097 32.55 66.0597 32.55C65.3097 32.55 64.5597 32.43 63.8397 32.16C62.6997 31.71 61.7697 30.84 61.2597 29.7C61.1397 29.43 61.0497 29.19 60.9897 28.89C60.5697 28.92 60.1497 28.95 59.7297 28.98H59.6997C58.7997 29.04 57.8097 29.13 56.8797 29.22C55.5897 29.37 54.3597 29.73 53.1597 30.24C52.5597 30.48 51.9897 30.75 51.4197 30.99L50.1597 31.53C50.3997 32.4 50.3697 33.33 50.0397 34.2C49.6197 35.4 48.8097 36.3 47.5197 37.02C47.3097 37.14 47.0997 37.26 46.9197 37.35Z" fill="white"/>
<path d="M65.4296 86.2801L72.8396 84.4501C73.3496 84.3301 73.8596 84.6301 73.9796 85.1401L74.8496 88.6501C74.9696 89.1601 74.6696 89.6701 74.1596 89.7901L66.7496 91.6201C66.2396 91.7401 65.7296 91.4401 65.6096 90.9301L64.7396 87.4201C64.6196 86.9401 64.9496 86.4301 65.4296 86.2801Z" fill="white"/>
<path d="M66.5393 91.89C65.9993 91.89 65.5193 91.53 65.3993 90.99L64.5293 87.48C64.3793 86.85 64.7693 86.22 65.3693 86.07L72.7793 84.24C73.4093 84.09 74.0393 84.48 74.1893 85.08L75.0593 88.59C75.2093 89.22 74.8493 89.85 74.2193 90L66.8093 91.83C66.7193 91.86 66.6293 91.89 66.5393 91.89ZM73.0793 84.66C73.0193 84.66 72.9593 84.66 72.8993 84.69L65.4893 86.52C65.3093 86.55 65.1593 86.67 65.0393 86.85C64.9493 87 64.9193 87.21 64.9493 87.39L65.8193 90.9C65.9093 91.29 66.2993 91.53 66.6893 91.44L74.0993 89.61C74.4893 89.52 74.7293 89.13 74.6393 88.74L73.7693 85.23C73.7093 84.9 73.4093 84.66 73.0793 84.66Z" fill="#D1D3D4"/>
<path d="M54.1199 71.43L76.1999 66C77.2799 65.73 78.3899 66.39 78.6599 67.5L79.5899 71.28C79.8599 72.36 79.1999 73.47 78.0899 73.74L56.0099 79.17C54.9299 79.44 53.8199 78.78 53.5499 77.67L52.6199 73.89C52.3499 72.81 53.0099 71.7 54.1199 71.43Z" fill="white"/>
<path d="M74.2444 49.6329L48.2021 56.0428L49.3565 60.7328L75.3987 54.3228L74.2444 49.6329Z" fill="white"/>
<path d="M51.7797 58.62C52.2271 58.62 52.5897 58.2573 52.5897 57.81C52.5897 57.3626 52.2271 57 51.7797 57C51.3324 57 50.9697 57.3626 50.9697 57.81C50.9697 58.2573 51.3324 58.62 51.7797 58.62Z" fill="#68E1FD"/>
<path d="M54.7202 57.87C55.1675 57.87 55.5302 57.5073 55.5302 57.06C55.5302 56.6126 55.1675 56.25 54.7202 56.25C54.2728 56.25 53.9102 56.6126 53.9102 57.06C53.9102 57.5073 54.2728 57.87 54.7202 57.87Z" fill="#68E1FD"/>
<path d="M57.7202 57.15C58.1675 57.15 58.5302 56.7874 58.5302 56.34C58.5302 55.8927 58.1675 55.53 57.7202 55.53C57.2728 55.53 56.9102 55.8927 56.9102 56.34C56.9102 56.7874 57.2728 57.15 57.7202 57.15Z" fill="#68E1FD"/>
<path d="M60.6596 56.4301C61.107 56.4301 61.4696 56.0674 61.4696 55.6201C61.4696 55.1727 61.107 54.8101 60.6596 54.8101C60.2123 54.8101 59.8496 55.1727 59.8496 55.6201C59.8496 56.0674 60.2123 56.4301 60.6596 56.4301Z" fill="#68E1FD"/>
<path d="M76.1037 57.257L50.0615 63.667L51.2159 68.3569L77.2581 61.9469L76.1037 57.257Z" fill="white"/>
<path d="M53.6401 66.24C54.0874 66.24 54.4501 65.8773 54.4501 65.43C54.4501 64.9826 54.0874 64.62 53.6401 64.62C53.1927 64.62 52.8301 64.9826 52.8301 65.43C52.8301 65.8773 53.1927 66.24 53.6401 66.24Z" fill="#68E1FD"/>
<path d="M56.6098 65.52C57.0572 65.52 57.4198 65.1574 57.4198 64.71C57.4198 64.2627 57.0572 63.9 56.6098 63.9C56.1625 63.9 55.7998 64.2627 55.7998 64.71C55.7998 65.1574 56.1625 65.52 56.6098 65.52Z" fill="#68E1FD"/>
<path d="M59.5795 64.77C60.0269 64.77 60.3895 64.4074 60.3895 63.96C60.3895 63.5127 60.0269 63.15 59.5795 63.15C59.1322 63.15 58.7695 63.5127 58.7695 63.96C58.7695 64.4074 59.1322 64.77 59.5795 64.77Z" fill="#68E1FD"/>
<path d="M62.5493 64.0501C62.9966 64.0501 63.3593 63.6874 63.3593 63.2401C63.3593 62.7927 62.9966 62.4301 62.5493 62.4301C62.1019 62.4301 61.7393 62.7927 61.7393 63.2401C61.7393 63.6874 62.1019 64.0501 62.5493 64.0501Z" fill="#68E1FD"/>
<path d="M62.9629 35.2866L51.3691 38.1403L53.1903 45.5393L64.7841 42.6856L62.9629 35.2866Z" fill="white"/>
<path d="M54.0601 37.71C53.9701 37.71 53.8801 37.65 53.8501 37.53L53.4301 35.82C52.9801 33.99 54.0901 32.13 55.9201 31.68C57.7501 31.23 59.6101 32.34 60.0601 34.17L60.4801 35.88C60.5101 36 60.4501 36.12 60.3001 36.15C60.1501 36.18 60.0601 36.12 60.0301 35.97L59.6101 34.26C59.2201 32.67 57.6001 31.68 56.0101 32.1C54.4201 32.49 53.4301 34.08 53.8201 35.67C53.8201 35.67 53.8201 35.67 53.8201 35.7L54.2401 37.41C54.2701 37.53 54.2101 37.65 54.0901 37.68L54.0601 37.71Z" fill="white"/>
<path d="M57.8096 40.44C58.4558 40.44 58.9796 39.9161 58.9796 39.27C58.9796 38.6238 58.4558 38.1 57.8096 38.1C57.1635 38.1 56.6396 38.6238 56.6396 39.27C56.6396 39.9161 57.1635 40.44 57.8096 40.44Z" fill="#68E1FD"/>
<path d="M58.4998 42.27C58.4098 42.27 58.3198 42.21 58.2898 42.09L57.6598 39.51C57.6298 39.39 57.6898 39.27 57.8398 39.24C57.9898 39.21 58.0798 39.27 58.1098 39.42L58.7398 42C58.7698 42.12 58.7098 42.24 58.5598 42.27H58.4998Z" fill="#68E1FD"/>
<path d="M47.2195 23.8801C47.0995 23.8801 46.9795 23.7901 46.9795 23.6701C46.9795 23.5501 47.0395 23.4601 47.1595 23.4601L57.0895 21.0301C57.2095 21.0001 57.3295 21.0601 57.3595 21.2101C57.3895 21.3301 57.3295 21.4501 57.1795 21.4801L47.2495 23.9401C47.2495 23.8801 47.2495 23.8801 47.2195 23.8801Z" fill="#D1D3D4"/>
<path d="M58.0193 21.2101C57.8993 21.2101 57.7793 21.1201 57.7793 21.0001C57.7793 20.8801 57.8393 20.7901 57.9593 20.7901L59.6993 20.3701C59.8193 20.3401 59.9393 20.4001 59.9993 20.5201C60.0293 20.6401 59.9693 20.7601 59.8493 20.8201H59.8193L58.0793 21.2401L58.0193 21.2101Z" fill="#D1D3D4"/>
<path d="M33.3604 95.3101C33.3604 95.3101 37.1104 63.9901 40.8004 60.5701C45.1504 56.4901 49.1404 53.7301 49.8604 56.0701C50.5804 58.4101 51.2704 62.2801 45.3004 66.6301L46.1704 74.4001C46.1704 74.4001 52.0504 78.4501 48.9904 91.2301" fill="white"/>
<path d="M33.3601 95.55C33.2101 95.55 33.1201 95.4301 33.1201 95.3101C33.2701 94.0201 36.9301 63.8701 40.5901 60.4501C44.8201 56.52 47.6701 54.7201 49.1101 55.0801C49.5601 55.2001 49.9201 55.5601 50.0401 56.0401C50.5801 57.5401 50.6401 59.1601 50.2801 60.6901C49.7101 62.8201 48.1201 64.8601 45.5101 66.7801L46.3501 74.31C47.1001 74.88 52.0501 79.23 49.1701 91.32C49.1401 91.44 49.0201 91.5301 48.9001 91.5C48.7801 91.4701 48.6901 91.3501 48.7201 91.2301C50.2801 84.6901 49.4401 80.5501 48.4801 78.1801C47.4301 75.6601 46.0201 74.64 45.9901 74.61L45.9001 74.55V74.46L45.0001 66.57L45.1201 66.4801C50.6701 62.4301 50.4301 58.83 49.5901 56.16C49.5301 55.86 49.2901 55.59 48.9901 55.5C47.7601 55.17 44.8801 57.0301 40.9201 60.7501C37.3501 64.0801 33.6301 95.04 33.5701 95.34C33.6001 95.46 33.4801 95.55 33.3601 95.55Z" fill="#231F20"/>
<path d="M125.07 110.1C125.07 110.1 113.91 88.14 105.51 78.24C104.37 76.89 102.9 76.65 101.88 77.37C100.65 78.21 100.62 80.97 100.62 80.97C100.62 80.97 97.4404 79.11 95.9104 79.5C94.3804 79.89 94.2004 82.32 94.2004 82.32C94.2004 82.32 90.7804 81.21 89.4004 82.41C88.0204 83.61 87.9004 85.8 87.9004 85.8C87.9004 85.8 69.9604 71.37 67.9804 70.14C66.0004 68.91 62.4604 71.1 64.2004 73.65C65.2804 75.24 74.3704 84.27 77.2804 87.15C80.1904 90.03 87.0304 97.8 87.8104 100.11C88.5904 102.42 89.2204 105.03 84.5704 105.33C79.9204 105.63 75.7504 106.47 73.7104 108.21C71.6704 109.95 70.3204 112.56 71.3404 113.07C72.3604 113.58 88.8304 111.69 95.0704 114.24C101.31 116.79 109.47 126.12 109.47 126.12L125.07 110.1Z" fill="white"/>
<path d="M109.47 126.45L109.32 126.27C109.23 126.18 101.13 116.97 95.0103 114.45C90.7203 112.71 81.4803 113.07 75.9303 113.28C72.9303 113.4 71.6103 113.43 71.2503 113.28C70.9803 113.13 70.8003 112.89 70.7703 112.56C70.6503 111.48 71.8803 109.44 73.5603 108.03C75.4203 106.47 79.1103 105.48 84.5403 105.12C86.2203 105 87.2703 104.58 87.7803 103.86C88.4103 102.93 88.0203 101.52 87.6003 100.2C86.8503 97.98 80.1903 90.33 77.1303 87.33C74.0103 84.27 65.1003 75.39 64.0203 73.8C63.2703 72.72 63.3603 71.55 64.2003 70.65C65.0403 69.75 66.8403 69.21 68.1003 69.99C69.9303 71.13 85.2003 83.37 87.7203 85.38C87.8103 84.66 88.1103 83.16 89.2203 82.23C90.4803 81.15 93.1503 81.78 93.9903 82.02C94.0803 81.33 94.4703 79.62 95.8203 79.29C97.1703 78.96 99.5403 80.13 100.38 80.61C100.44 79.8 100.68 77.91 101.73 77.19C102.93 76.38 104.52 76.74 105.66 78.12C114 87.93 125.13 109.8 125.25 110.01L125.31 110.16L125.19 110.28L109.47 126.45ZM83.3703 112.65C87.8403 112.65 92.4603 112.92 95.1903 114.03C100.92 116.37 108.33 124.47 109.5 125.79L124.77 110.07C123.78 108.15 113.25 87.75 105.3 78.42C104.31 77.25 102.96 76.92 101.94 77.58C100.83 78.33 100.77 80.94 100.77 80.97V81.36L100.44 81.18C100.41 81.15 97.3203 79.38 95.8803 79.74C94.5303 80.07 94.3503 82.32 94.3503 82.35L94.3203 82.65L94.0503 82.56C94.0203 82.56 90.7503 81.48 89.4603 82.62C88.1703 83.76 88.1103 85.86 88.1103 85.86V86.31L87.7503 86.01C87.5703 85.86 69.7803 71.58 67.8303 70.38C66.7503 69.72 65.2503 70.17 64.5003 70.98C63.7803 71.73 63.7503 72.66 64.3503 73.56C65.4303 75.12 74.4303 84.09 77.4003 87.03C80.1303 89.73 87.1803 97.62 87.9903 100.08C88.4703 101.52 88.8903 103.02 88.1403 104.13C87.5703 105 86.4003 105.48 84.5403 105.6C79.2003 105.96 75.6003 106.92 73.8303 108.42C72.1503 109.83 71.1003 111.72 71.1903 112.53C71.1903 112.68 71.2803 112.83 71.4003 112.89C71.6703 113.01 73.7103 112.95 75.8703 112.86C78.0303 112.74 80.6703 112.62 83.3703 112.65Z" fill="#231F20"/>
<path d="M123.451 103.74L100.771 122.25L112.021 138.87L138.181 117.15L123.451 103.74Z" fill="#231F20"/>
<path d="M105.33 125.4C105.21 125.4 105.12 125.31 105.12 125.16C105.12 125.1 105.15 125.04 105.21 124.98L125.1 109.74C125.19 109.65 125.34 109.68 125.43 109.77C125.52 109.86 125.49 110.01 125.4 110.1L105.51 125.31C105.45 125.37 105.39 125.4 105.33 125.4Z" fill="white"/>
</svg>
