<svg width="34" height="34" viewBox="0 0 34 34" fill="none" xmlns="http://www.w3.org/2000/svg">
<path d="M11.333 29.9873V19.8327L16.9997 9.91602L22.6663 19.8327V29.9873" stroke="#FFC107" stroke-width="2" stroke-linecap="round" stroke-linejoin="round"/>
<path d="M11.333 19.833C11.333 19.833 12.9296 21.2497 14.1663 21.2497C15.4031 21.2497 16.9997 19.833 16.9997 19.833C16.9997 19.833 18.5963 21.2497 19.833 21.2497C21.0698 21.2497 22.6663 19.833 22.6663 19.833" stroke="#FFC107" stroke-width="2" stroke-linecap="round" stroke-linejoin="round"/>
<path d="M16.9997 2.83301C9.17543 2.83301 2.83301 9.17543 2.83301 16.9997C2.83301 24.8239 9.17543 31.1663 16.9997 31.1663C24.8239 31.1663 31.1663 24.8239 31.1663 16.9997C31.1663 9.17543 24.8239 2.83301 16.9997 2.83301Z" stroke="#FFC107" stroke-width="2" stroke-linecap="round" stroke-linejoin="round"/>
</svg>
