<svg width="34" height="34" viewBox="0 0 34 34" fill="none" xmlns="http://www.w3.org/2000/svg">
<path d="M9.91667 17C4.25 17 4.25 19.5358 4.25 22.6667V24.0833C4.25 27.9933 4.25 31.1667 11.3333 31.1667H22.6667C28.3333 31.1667 29.75 27.9933 29.75 24.0833V22.6667C29.75 19.5358 29.75 17 24.0833 17C22.6667 17 22.27 17.2975 21.5333 17.85L20.0883 19.38C18.4167 21.165 15.5833 21.165 13.8975 19.38L12.4667 17.85C11.73 17.2975 11.3333 17 9.91667 17Z" stroke="#001F3F" stroke-width="2" stroke-miterlimit="10" stroke-linecap="round" stroke-linejoin="round"/>
<path d="M26.9163 16.9997V8.49967C26.9163 5.36884 26.9163 2.83301 21.2497 2.83301H12.7497C7.08301 2.83301 7.08301 5.36884 7.08301 8.49967V16.9997" stroke="#001F3F" stroke-width="2" stroke-miterlimit="10" stroke-linecap="round" stroke-linejoin="round"/>
<path d="M14.9463 13.0762H19.6638" stroke="#001F3F" stroke-width="2" stroke-linecap="round" stroke-linejoin="round"/>
<path d="M13.7695 8.82617H20.8529" stroke="#001F3F" stroke-width="2" stroke-linecap="round" stroke-linejoin="round"/>
</svg>
