<svg width="34" height="34" viewBox="0 0 34 34" fill="none" xmlns="http://www.w3.org/2000/svg">
<path d="M25.4998 11.206C25.4573 11.206 25.429 11.206 25.3865 11.206H25.3156C22.6381 11.121 20.6406 9.05266 20.6406 6.50266C20.6406 3.89599 22.7656 1.78516 25.3581 1.78516C27.9506 1.78516 30.0756 3.91016 30.0756 6.50266C30.0615 9.06683 28.064 11.1352 25.514 11.2202C25.514 11.206 25.514 11.206 25.4998 11.206ZM25.3581 3.896C23.9273 3.896 22.7656 5.05767 22.7656 6.4885C22.7656 7.891 23.8565 9.02434 25.259 9.081C25.2731 9.06684 25.3865 9.06684 25.514 9.081C26.8881 9.01017 27.9506 7.87683 27.9648 6.4885C27.9648 5.05767 26.8031 3.896 25.3581 3.896Z" fill="#007BFF"/>
<path d="M25.5144 21.6466C24.9619 21.6466 24.4094 21.6041 23.8569 21.5049C23.276 21.4058 22.8935 20.8533 22.9927 20.2724C23.0919 19.6916 23.6444 19.3091 24.2252 19.4083C25.9677 19.7058 27.8094 19.3799 29.0419 18.5583C29.7077 18.1191 30.0619 17.5666 30.0619 17.0141C30.0619 16.4616 29.6935 15.9233 29.0419 15.4841C27.8094 14.6624 25.9394 14.3366 24.1827 14.6483C23.6019 14.7616 23.0494 14.3649 22.9502 13.7841C22.851 13.2033 23.2335 12.6508 23.8144 12.5516C26.1235 12.1408 28.5177 12.5799 30.2177 13.7133C31.4644 14.5491 32.1869 15.7391 32.1869 17.0141C32.1869 18.2749 31.4785 19.4791 30.2177 20.3291C28.9285 21.1791 27.2569 21.6466 25.5144 21.6466Z" fill="#007BFF"/>
<path d="M8.45719 11.2055C8.44302 11.2055 8.42886 11.2055 8.42886 11.2055C5.87886 11.1205 3.88135 9.05217 3.86719 6.50217C3.86719 3.8955 5.99219 1.77051 8.58469 1.77051C11.1772 1.77051 13.3022 3.89551 13.3022 6.48801C13.3022 9.05218 11.3047 11.1205 8.75469 11.2055L8.45719 10.143L8.55636 11.2055C8.52802 11.2055 8.48552 11.2055 8.45719 11.2055ZM8.59885 9.08051C8.68385 9.08051 8.75469 9.0805 8.83969 9.09467C10.1005 9.038 11.2055 7.90467 11.2055 6.50217C11.2055 5.07134 10.0439 3.90967 8.61302 3.90967C7.18219 3.90967 6.02052 5.07134 6.02052 6.50217C6.02052 7.8905 7.09719 9.00967 8.47135 9.09467C8.48552 9.0805 8.54219 9.08051 8.59885 9.08051Z" fill="#007BFF"/>
<path d="M8.44301 21.6466C6.70051 21.6466 5.02884 21.1791 3.73967 20.3291C2.49301 19.4933 1.77051 18.2891 1.77051 17.0141C1.77051 15.7533 2.49301 14.5491 3.73967 13.7133C5.43967 12.5799 7.83384 12.1408 10.143 12.5516C10.7238 12.6508 11.1063 13.2033 11.0072 13.7841C10.908 14.3649 10.3555 14.7616 9.77468 14.6483C8.01801 14.3366 6.16218 14.6624 4.91551 15.4841C4.24968 15.9233 3.89551 16.4616 3.89551 17.0141C3.89551 17.5666 4.26384 18.1191 4.91551 18.5583C6.14801 19.3799 7.98967 19.7058 9.73217 19.4083C10.313 19.3091 10.8655 19.7058 10.9647 20.2724C11.0638 20.8533 10.6813 21.4058 10.1005 21.5049C9.54801 21.6041 8.99551 21.6466 8.44301 21.6466Z" fill="#007BFF"/>
<path d="M16.9998 21.788C16.9573 21.788 16.929 21.788 16.8865 21.788H16.8156C14.1381 21.703 12.1406 19.6347 12.1406 17.0847C12.1406 14.478 14.2656 12.3672 16.8581 12.3672C19.4506 12.3672 21.5756 14.4922 21.5756 17.0847C21.5615 19.6489 19.564 21.7172 17.014 21.8022C17.014 21.788 17.014 21.788 16.9998 21.788ZM16.8581 14.478C15.4273 14.478 14.2656 15.6397 14.2656 17.0705C14.2656 18.473 15.3565 19.6064 16.759 19.663C16.7731 19.6489 16.8865 19.6489 17.014 19.663C18.3881 19.5922 19.4506 18.4589 19.4648 17.0705C19.4648 15.6539 18.3031 14.478 16.8581 14.478Z" fill="#007BFF"/>
<path d="M17.0001 32.2435C15.3001 32.2435 13.6001 31.8044 12.2826 30.9119C11.036 30.076 10.3135 28.886 10.3135 27.611C10.3135 26.3502 11.0218 25.1318 12.2826 24.296C14.9318 22.5393 19.0826 22.5393 21.7176 24.296C22.9643 25.1318 23.6868 26.3219 23.6868 27.5969C23.6868 28.8577 22.9785 30.076 21.7176 30.9119C20.4001 31.7902 18.7001 32.2435 17.0001 32.2435ZM13.4585 26.081C12.7926 26.5202 12.4385 27.0727 12.4385 27.6252C12.4385 28.1777 12.8068 28.716 13.4585 29.1552C15.371 30.4444 18.6151 30.4444 20.5276 29.1552C21.1935 28.716 21.5476 28.1635 21.5476 27.611C21.5476 27.0585 21.1793 26.5202 20.5276 26.081C18.6293 24.7919 15.3851 24.806 13.4585 26.081Z" fill="#007BFF"/>
</svg>
