<svg width="34" height="34" viewBox="0 0 34 34" fill="none" xmlns="http://www.w3.org/2000/svg">
<path d="M14.861 3.15945L7.79188 5.80861C6.16272 6.41778 4.83105 8.34443 4.83105 10.0869V20.6128C4.83105 22.2844 5.93607 24.4803 7.2819 25.4861L13.3736 30.0336C15.3711 31.5353 18.6577 31.5353 20.6552 30.0336L26.7469 25.4861C28.0927 24.4803 29.1977 22.2844 29.1977 20.6128V10.0869C29.1977 8.34443 27.866 6.41778 26.2369 5.80861L19.1677 3.15945C17.9635 2.72029 16.0369 2.72029 14.861 3.15945Z" stroke="#DC3545" stroke-width="2" stroke-linecap="round" stroke-linejoin="round"/>
<path d="M17.0002 15.4701C16.9436 15.4701 16.8727 15.4701 16.816 15.4701C15.4844 15.4276 14.4219 14.3226 14.4219 12.9767C14.4219 11.6026 15.5411 10.4834 16.9152 10.4834C18.2894 10.4834 19.4086 11.6026 19.4086 12.9767C19.3944 14.3367 18.3319 15.4276 17.0002 15.4701Z" stroke="#DC3545" stroke-width="2" stroke-linecap="round" stroke-linejoin="round"/>
<path d="M14.1811 19.4368C12.8211 20.3434 12.8211 21.8309 14.1811 22.7376C15.7253 23.7717 18.2611 23.7717 19.8053 22.7376C21.1653 21.8309 21.1653 20.3434 19.8053 19.4368C18.2753 18.4026 15.7395 18.4026 14.1811 19.4368Z" stroke="#DC3545" stroke-width="2" stroke-linecap="round" stroke-linejoin="round"/>
</svg>
