<svg
  viewBox="0 0 25 24"
  fill="none"
  xmlns="http://www.w3.org/2000/svg"
>
  <path
    d="M22.637 18.33C22.637 18.69 22.557 19.06 22.387 19.42C22.217 19.78 21.997 20.12 21.707 20.44C21.217 20.98 20.677 21.37 20.067 21.62C19.467 21.87 18.817 22 18.117 22C17.097 22 16.007 21.76 14.857 21.27C13.707 20.78 12.557 20.12 11.417 19.29C10.267 18.45 9.17699 17.52 8.13699 16.49C7.10699 15.45 6.17699 14.36 5.34699 13.22C4.52699 12.08 3.86699 10.94 3.38699 9.81C2.90699 8.67 2.66699 7.58 2.66699 6.54C2.66699 5.86 2.78699 5.21 3.02699 4.61C3.26699 4 3.64699 3.44 4.17699 2.94C4.81699 2.31 5.51699 2 6.25699 2C6.53699 2 6.81699 2.06 7.06699 2.18C7.32699 2.3 7.55699 2.48 7.73699 2.74L10.057 6.01C10.237 6.26 10.367 6.49 10.457 6.71C10.547 6.92 10.597 7.13 10.597 7.32C10.597 7.56 10.527 7.8 10.387 8.03C10.257 8.26 10.067 8.5 9.82699 8.74L9.06699 9.53C8.95699 9.64 8.90699 9.77 8.90699 9.93C8.90699 10.01 8.91699 10.08 8.93699 10.16C8.96699 10.24 8.99699 10.3 9.01699 10.36C9.19699 10.69 9.50699 11.12 9.94699 11.64C10.397 12.16 10.877 12.69 11.397 13.22C11.937 13.75 12.457 14.24 12.987 14.69C13.507 15.13 13.937 15.43 14.277 15.61C14.327 15.63 14.387 15.66 14.457 15.69C14.537 15.72 14.617 15.73 14.707 15.73C14.877 15.73 15.007 15.67 15.117 15.56L15.877 14.81C16.127 14.56 16.367 14.37 16.597 14.25C16.827 14.11 17.057 14.04 17.307 14.04C17.497 14.04 17.697 14.08 17.917 14.17C18.137 14.26 18.367 14.39 18.617 14.56L21.927 16.91C22.187 17.09 22.367 17.3 22.477 17.55C22.577 17.8 22.637 18.05 22.637 18.33Z"
    stroke="currentColor"
    stroke-width="1.5"
    stroke-miterlimit="10"
  />
</svg>
