<svg width="150" height="129" viewBox="0 0 150 129" fill="none" xmlns="http://www.w3.org/2000/svg">
<g clip-path="url(#clip0_6000_44260)">
<path d="M62.3951 112.07L64.0334 106.742C62.0622 104.575 59.5912 102.922 56.835 101.926C59.5278 106.381 56.9184 112.192 58.0058 117.281C58.3571 118.866 59.061 120.351 60.0653 121.627C61.0697 122.903 62.3487 123.937 63.8076 124.653L66.2937 127.729C67.5971 125.455 68.3913 122.926 68.6216 120.316C68.8519 117.706 68.5129 115.077 67.6278 112.611C67.1176 111.232 66.4356 109.923 65.5977 108.714C64.1204 110.449 62.3951 112.07 62.3951 112.07Z" fill="#F2F2F2"/>
<path d="M53.3868 112.75L52.4736 107.252C49.7418 106.19 46.7918 105.811 43.8799 106.147C48.2797 108.935 48.5397 115.299 51.7857 119.369C52.8079 120.631 54.1013 121.647 55.5701 122.342C57.0389 123.037 58.6455 123.393 60.2708 123.383L63.8698 125.029C64.0208 122.414 63.6021 119.796 62.6426 117.358C61.6832 114.919 60.2057 112.717 58.312 110.904C57.2395 109.897 56.0444 109.029 54.7548 108.32C54.207 110.531 53.3868 112.75 53.3868 112.75Z" fill="#F2F2F2"/>
<path d="M107.007 126.361L104.484 126.36L103.283 116.641L107.008 116.641L107.007 126.361Z" fill="#FFB6B6"/>
<path d="M107.651 128.804L99.5137 128.803V128.701C99.5137 127.862 99.8474 127.058 100.441 126.464C101.035 125.871 101.841 125.538 102.681 125.538H102.681L104.167 124.412L106.94 125.538L107.651 125.538L107.651 128.804Z" fill="#2F2E41"/>
<path d="M147.772 117.169L146.051 119.013L138.112 113.262L140.652 110.542L147.772 117.169Z" fill="#FFB6B6"/>
<path d="M150 118.365L144.452 124.309L144.377 124.239C143.762 123.667 143.401 122.875 143.371 122.037C143.342 121.198 143.647 120.383 144.219 119.769L144.408 117.915L147.124 116.658L147.608 116.139L150 118.365Z" fill="#2F2E41"/>
<path d="M144.038 111.706L141.37 117.277L124.991 106.448L122.609 103.206L114.796 92.5758L111.62 97.608L109.41 102.869C108.69 103.338 108.083 103.961 107.633 104.692C107.183 105.424 106.902 106.247 106.809 107.1L106.708 108.032L108.105 120.567L102.797 122.195L99.749 105.355L100.745 101.706L101.771 96.5836L106.936 80.3975H120.758L128.686 97.2479L129.265 100.681L131.513 103.257L144.038 111.706Z" fill="#2F2E41"/>
<path d="M115.314 53.916L117.641 55.6852L120.447 56.5463C120.447 56.5463 121.607 72.8406 122.652 73.8844C123.697 74.9282 122.754 74.9562 122.964 76.3122C123.174 77.6681 123.685 80.4476 123.685 80.4476C116.629 84.177 110.547 84.2771 105.661 79.913C105.599 79.643 105.63 79.3598 105.751 79.1103C105.872 78.8609 106.074 78.6601 106.325 78.5413C107.234 78.0595 105.487 75.8107 106.23 75.4347C106.973 75.0587 105.928 71.7969 105.928 71.7969L106.614 64.9914L106.072 63.9036L107.394 57.2471L109.688 56.4105L110.604 54.2059L115.314 53.916Z" fill="#3F3D56"/>
<path d="M116.772 82.8762C116.761 82.5819 116.816 82.2889 116.931 82.0179C117.046 81.7468 117.219 81.5043 117.439 81.3074C117.658 81.1105 117.918 80.964 118.2 80.8782C118.482 80.7924 118.779 80.7694 119.071 80.8108L122.35 74.4463L124.177 77.6876L120.783 83.2345C120.681 83.7197 120.404 84.1505 120.005 84.4454C119.606 84.7403 119.113 84.8788 118.618 84.8346C118.124 84.7904 117.663 84.5667 117.322 84.2057C116.982 83.8448 116.786 83.3717 116.772 82.8762Z" fill="#FFB6B6"/>
<path d="M122.293 81.3193L129.326 70.4341L129.303 70.384C129.277 70.3266 127.684 66.8918 126.141 63.7457C125.903 63.2612 125.667 62.7836 125.437 62.3262C125.338 62.1288 125.241 61.9355 125.145 61.7463C124.496 60.4703 123.93 59.4157 123.592 58.9147C122.844 57.782 121.731 56.9388 120.438 56.525L120.405 56.5166L120.374 56.5295C119.741 56.7962 119.218 57.2703 118.891 57.8735C118.564 58.4768 118.453 59.1733 118.576 59.8482C119.186 63.1034 120.545 66.1724 122.547 68.8131L123.687 70.3138L119.725 78.916L122.293 81.3193Z" fill="#3F3D56"/>
<path d="M98.1087 39.5946C98.3023 39.8166 98.4449 40.0784 98.5263 40.3614C98.6077 40.6444 98.626 40.9418 98.5798 41.2326C98.5337 41.5234 98.4242 41.8006 98.2592 42.0446C98.0942 42.2887 97.8776 42.4936 97.6247 42.645L99.0908 49.6511L95.6277 48.2819L94.7664 41.8387C94.5399 41.3975 94.4832 40.8888 94.6073 40.4087C94.7313 39.9287 95.0274 39.5108 95.4394 39.2342C95.8513 38.9576 96.3506 38.8415 96.8426 38.9079C97.3346 38.9743 97.785 39.2187 98.1087 39.5946Z" fill="#FFB6B6"/>
<path d="M94.8008 44.2764L96.2012 57.1549L96.2508 57.1792C96.2917 57.1993 98.066 58.0683 100.244 59.1032C100.611 59.2778 100.559 60.0341 100.943 60.2148C101.207 60.3393 101.906 59.8876 102.173 60.0124C104.553 61.124 106.96 62.205 107.92 62.4979C109.215 62.9076 110.611 62.8627 111.877 62.3707L111.908 62.3567L111.924 62.3271C112.247 61.722 112.355 61.0249 112.228 60.3507C112.102 59.6765 111.749 59.0655 111.228 58.6185C108.701 56.4733 105.71 54.944 102.49 54.1511L100.658 53.7022L98.3116 44.5281L94.8008 44.2764Z" fill="#3F3D56"/>
<path d="M112.833 53.1857C115.375 53.1857 117.435 51.1281 117.435 48.5899C117.435 46.0517 115.375 43.9941 112.833 43.9941C110.291 43.9941 108.23 46.0517 108.23 48.5899C108.23 51.1281 110.291 53.1857 112.833 53.1857Z" fill="#FFB6B6"/>
<path d="M108.264 45.5106C108.643 44.411 110.527 43.6484 113.581 43.5423C116.636 43.4363 117.41 47.0307 117.41 47.0307C119.449 48.6825 115.233 53.1046 115.029 52.9453L115.121 52.1145C115.273 50.7383 115.918 49.6645 115.097 48.2303L114.309 48.2394C113.291 48.4348 112.273 48.6303 111.256 48.8257L112.461 47.7662L112.427 47.7137C111.914 47.9803 111.356 48.1494 110.782 48.2125C110.134 48.2505 109.426 47.9931 109.116 47.4241C109.033 47.2677 108.982 47.0963 108.967 46.9201C108.094 47.2685 107.694 48.3436 107.694 48.3436C107.694 48.3436 107.886 46.6101 108.264 45.5106Z" fill="#2F2E41"/>
<path d="M18.5422 45.7867C18.4797 45.7076 18.4125 45.6325 18.3408 45.5616C18.3583 45.5376 18.3758 45.5113 18.3934 45.4873L18.5422 45.7867Z" fill="#2F2E41"/>
<path d="M19.438 64.2708C18.6852 65.6061 17.1817 66.3513 15.6913 66.7163C14.0173 67.1541 12.2545 67.1201 10.5987 66.6179C10.3886 66.5502 10.1785 66.4715 9.97501 66.3841C10.0729 66.1246 10.1504 65.8579 10.207 65.5864C10.2832 65.2191 10.3213 64.8449 10.3208 64.4697C10.155 64.7928 9.94014 65.0884 9.68393 65.346C9.4863 65.5534 9.26182 65.7334 9.01645 65.8814C8.25539 65.4202 7.59639 64.809 7.07965 64.0851C7.11247 64.0042 7.14531 63.9233 7.17595 63.8425C7.33486 63.4202 7.46071 62.9861 7.55236 62.5444C7.6767 61.947 7.73904 61.3384 7.73839 60.7283C7.46855 61.254 7.11859 61.7347 6.70103 62.1532C6.57585 62.2869 6.44285 62.4132 6.30274 62.5312C6.08576 61.8732 6.00189 61.1787 6.05598 60.488C6.11008 59.7973 6.30108 59.1243 6.61787 58.5079C7.48451 56.9082 9.16527 55.9576 10.6622 54.9239C12.1613 53.8902 13.6604 52.4915 13.7873 50.6755C13.8727 49.4495 13.3037 48.2213 13.5313 47.0149C13.627 46.5062 13.8607 46.0335 14.2069 45.6483C14.5531 45.263 14.9985 44.9801 15.4946 44.8302C15.9908 44.6803 16.5186 44.6692 17.0206 44.7982C17.5226 44.9272 17.9795 45.1913 18.3416 45.5616C17.4924 46.7636 16.6477 48.0071 16.3041 49.4364C15.9539 50.8918 16.2406 52.5986 17.3896 53.5624C17.7835 53.8946 18.2672 54.1306 18.5714 54.5458C18.9762 55.0965 18.9784 55.8308 19.0441 56.5083C19.1754 57.8261 19.6065 59.0936 19.8385 60.3983C20.0727 61.7008 20.0858 63.1147 19.438 64.2708Z" fill="#2F2E41"/>
<path d="M4.00488 118.465L6.00228 120.006L12.9052 113.046L9.95727 110.771L4.00488 118.465Z" fill="#A0616A"/>
<path d="M4.08981 116.959L7.39275 119.207L6.3475 120.558L7.74736 124.944C7.81653 125.161 7.81454 125.394 7.74168 125.609C7.66882 125.825 7.52891 126.011 7.34238 126.142C7.15584 126.272 6.93245 126.339 6.70481 126.334C6.47717 126.329 6.25721 126.251 6.07704 126.112L2.31814 123.211L2.70414 121.375L1.41726 122.516L0 121.423L4.08981 116.959Z" fill="#2F2E41"/>
<path d="M14.1387 49.6687C14.1384 50.448 14.3297 51.2154 14.6957 51.9036C15.0618 52.5919 15.5914 53.1798 16.2382 53.616C16.8849 54.0521 17.629 54.323 18.405 54.4049C19.1811 54.4868 19.9654 54.3772 20.6892 54.0858C21.4129 53.7943 22.054 53.3299 22.556 52.7333C23.0581 52.1367 23.4058 51.4262 23.5687 50.664C23.7316 49.9019 23.7046 49.1115 23.4901 48.3622C23.2757 47.6129 22.8803 46.9277 22.3388 46.3666L22.3159 46.3438C22.2778 46.3038 22.2396 46.2638 22.1996 46.2257L22.1988 46.2255L22.1982 46.2251L22.1978 46.2245L22.1977 46.2238C22.1481 46.1781 22.0985 46.1324 22.047 46.0886C21.2079 45.3535 20.0286 44.5557 18.8253 44.5557C16.1917 44.5557 14.1387 47.0388 14.1387 49.6687Z" fill="#2F2E41"/>
<path d="M41.3122 47.2241C41.3351 47.478 41.3019 47.7338 41.215 47.9736C41.1281 48.2133 40.9896 48.4311 40.8093 48.6115C40.629 48.792 40.4112 48.9309 40.1714 49.0182C39.9316 49.1056 39.6755 49.1394 39.4211 49.1173L27.6156 59.7614L25.584 56.5573L37.8273 47.1019C37.8929 46.6778 38.112 46.2923 38.4432 46.0187C38.7743 45.7451 39.1945 45.6022 39.6241 45.6173C40.0537 45.6323 40.4628 45.8042 40.7739 46.1004C41.085 46.3965 41.2766 46.7963 41.3122 47.2241Z" fill="#A0616A"/>
<path d="M22.5697 62.9744C22.5697 62.9744 23.0089 63.7845 24.5093 62.5336C25.7105 61.5322 31.4654 57.1846 32.7052 55.403C32.9883 55.515 33.3007 55.5298 33.5931 55.445C33.8855 55.3602 34.1414 55.1807 34.3204 54.9347L30.9235 51.9639C29.9071 52.0807 29.9289 52.7625 30.0347 53.1496L27.4723 54.3089L20.8555 58.5316L22.2417 62.3945L22.5697 62.9744Z" fill="#6C63FF"/>
<path d="M16.1597 70.4384L15.9122 71.6151L15.7021 75.9554L24.9523 76.4631L24.6651 69.7875L23.7685 68.3164L16.1597 70.4384Z" fill="#A0616A"/>
<path d="M20.0808 54.7626C22.2887 54.7626 24.0785 52.9752 24.0785 50.7704C24.0785 48.5657 22.2887 46.7783 20.0808 46.7783C17.8729 46.7783 16.083 48.5657 16.083 50.7704C16.083 52.9752 17.8729 54.7626 20.0808 54.7626Z" fill="#A0616A"/>
<path d="M12.9826 65.4951L12.958 62.1767C12.9574 60.9827 13.3621 59.8237 14.1059 58.8888C14.8497 57.954 15.8888 57.2984 17.0537 57.0291L17.0688 57.0255L17.8593 55.9619L21.071 56.2827L21.6596 57.4841L23.9869 58.8679L24.8829 61.7443C25.2715 62.0029 25.6028 62.3386 25.856 62.7305C26.1092 63.1224 26.279 63.5622 26.3549 64.0224C26.6591 65.9628 25.2986 67.9043 25.1367 68.1269L24.7197 70.4719L15.6489 72.0702L15.5752 72.0795L12.9826 65.4951Z" fill="#6C63FF"/>
<path d="M24.9727 50.0591C24.5063 50.354 24.0225 50.6204 23.5239 50.8567C23.0178 51.0995 22.4884 51.2906 21.9438 51.4272C21.788 51.0858 21.5973 50.7613 21.3748 50.459C21.432 50.8172 21.4335 51.1821 21.3792 51.5408C20.4765 51.6862 19.552 51.6105 18.6851 51.3201L17.9323 50.0591L17.8754 51.4665C17.2517 51.5801 16.6301 51.6872 16.0064 51.7987C15.9692 51.803 15.932 51.8118 15.897 51.8183C15.5096 50.0744 16.059 48.1534 17.2801 46.9908C17.8864 46.4196 18.6428 46.0321 19.4611 45.8735C20.2793 45.7149 21.1259 45.7916 21.9022 46.0948C22.0007 46.1341 22.1014 46.1778 22.1976 46.2237L22.1978 46.2246L22.1983 46.2253L22.199 46.2258L22.1998 46.2259C22.2567 46.2543 22.3049 46.3221 22.3684 46.3155C25.0996 46.0117 25.1871 48.1272 24.9727 50.0591Z" fill="#2F2E41"/>
<path d="M18.3213 113.318L20.3218 114.854L27.2108 107.881L24.2583 105.612L18.3213 113.318Z" fill="#A0616A"/>
<path d="M18.5847 111.95L21.8922 114.192L20.8496 115.544L22.2584 119.928C22.328 120.145 22.3265 120.378 22.254 120.593C22.1816 120.809 22.0421 120.995 21.8558 121.126C21.6695 121.257 21.4463 121.325 21.2186 121.32C20.991 121.315 20.7709 121.238 20.5904 121.099L16.8257 118.206L17.2079 116.369L15.9234 117.513L14.5039 116.422L18.5847 111.95Z" fill="#2F2E41"/>
<path d="M11.8299 104.806L11.8298 104.78L12.7779 103.149L11.8098 101.025L11.7808 95.5688L11.9377 94.7497C12.1488 93.6481 12.0873 92.5116 11.7588 91.439L11.7411 88.1178C11.7071 87.2858 12.9978 86.5541 12.6968 85.8604C9.85178 79.3042 15.602 74.3028 15.6409 74.2626L15.7584 74.1406L16.3959 74.6228L17.0028 74.6236L25.1917 76.1136L25.2509 76.2237C25.573 76.827 26.1946 78.9064 26.2314 79.8474C26.6396 80.3192 31.2884 85.6911 31.7017 86.0643C34.4943 88.5876 36.0932 92.7638 36.7977 95.0287C36.9727 95.5885 37.0079 96.1825 36.9004 96.7589C36.7929 97.3354 36.5459 97.8769 36.1809 98.3362L25.6088 109.9L22.7638 107.277L28.4842 96.868L28.0717 95.8119C27.3316 95.6755 26.6618 95.2869 26.1766 94.7124L25.0182 93.3394C24.6975 92.9603 24.4937 92.4965 24.4315 92.0042L23.729 91.9197L21.2128 89.2816L19.467 105.069L18.9924 106.316L10.7272 116.019L7.22559 113.833L11.8299 104.806Z" fill="#2F2E41"/>
<path d="M10.5684 37.0184C10.4096 37.218 10.2966 37.45 10.2373 37.6979C10.178 37.9459 10.1739 38.2038 10.2252 38.4536C10.2765 38.7033 10.382 38.9388 10.5343 39.1434C10.6866 39.348 10.882 39.5168 11.1067 39.6378L8.47852 47.4075L10.6246 55.6414L14.0851 54.0792L11.9497 47.8686L13.5473 38.8286C13.7259 38.4382 13.7549 37.9959 13.6288 37.5856C13.5027 37.1752 13.2303 36.8254 12.8631 36.6022C12.4959 36.3791 12.0595 36.2982 11.6366 36.3749C11.2137 36.4516 10.8336 36.6805 10.5684 37.0184Z" fill="#A0616A"/>
<path d="M13.7353 62.4261C13.7353 62.4261 12.9225 62.8619 12.3572 60.9935C11.9047 59.4977 8.825 51.376 8.76951 49.2072C8.47135 49.1455 8.20224 48.9864 8.00457 48.7551C7.80691 48.5238 7.69192 48.2334 7.67773 47.9296L12.1506 47.3115C12.9355 47.9668 12.5421 48.5245 12.2407 48.7899L13.7641 51.3667L16.9483 58.3234L14.3284 62.1215L13.7353 62.4261Z" fill="#6C63FF"/>
<path d="M16.0049 51.7976C16.4642 50.4144 17.2879 49.18 18.3894 48.2241C19.491 47.2682 20.8298 46.6259 22.2656 46.3646C22.2713 46.3627 22.2904 46.3551 22.3152 46.3437C22.3304 46.3342 22.3495 46.3246 22.3686 46.3151C22.3113 46.2827 22.256 46.2542 22.1988 46.2256L22.1981 46.2255L22.1975 46.225L22.1971 46.2244L22.1969 46.2237C22.1473 46.178 22.0978 46.1323 22.0463 46.0885L21.9013 46.0942C21.9013 46.0942 16.8077 45.2887 16.0049 51.7976Z" fill="#FD6584"/>
<path d="M81.7308 96.2836C82.2867 95.4492 81.9577 94.2548 80.9958 93.6158C80.034 92.9768 78.8037 93.1353 78.2478 93.9697C77.6919 94.804 78.0209 95.9985 78.9827 96.6375C79.9445 97.2765 81.1749 97.118 81.7308 96.2836Z" fill="#F2F2F2"/>
<path d="M70.4466 65.1411C71.0025 64.3067 70.6735 63.1123 69.7117 62.4733C68.7499 61.8343 67.5195 61.9927 66.9636 62.8271C66.4077 63.6615 66.7367 64.8559 67.6985 65.4949C68.6603 66.1339 69.8907 65.9755 70.4466 65.1411Z" fill="#F2F2F2"/>
<path d="M117.637 113.084C118.193 112.25 117.864 111.056 116.902 110.417C115.94 109.778 114.71 109.936 114.154 110.77C113.598 111.605 113.927 112.799 114.889 113.438C115.851 114.077 117.081 113.919 117.637 113.084Z" fill="#F2F2F2"/>
<path d="M22.2298 12.895C22.7857 12.0606 22.4567 10.8662 21.4949 10.2272C20.5331 9.58818 19.3027 9.74659 18.7468 10.581C18.1909 11.4154 18.5199 12.6098 19.4817 13.2488C20.4435 13.8878 21.6739 13.7294 22.2298 12.895Z" fill="#F2F2F2"/>
<path d="M66.7532 3.06001C67.3092 2.22561 66.9801 1.0312 66.0183 0.392206C65.0565 -0.246784 63.8262 -0.0883793 63.2702 0.746018C62.7143 1.58041 63.0434 2.77484 64.0052 3.41383C64.967 4.05282 66.1973 3.8944 66.7532 3.06001Z" fill="#F2F2F2"/>
<path d="M45.682 85.5717C46.2379 84.7373 45.9088 83.5429 44.947 82.9039C43.9852 82.2649 42.7549 82.4233 42.1989 83.2577C41.643 84.0921 41.9721 85.2866 42.9339 85.9256C43.8957 86.5645 45.126 86.4061 45.682 85.5717Z" fill="#E6E6E6"/>
<path d="M137.523 129H4.09808C4.03341 128.999 3.97146 128.974 3.92579 128.928C3.88013 128.882 3.85449 128.82 3.85449 128.756C3.85449 128.691 3.88013 128.629 3.92579 128.583C3.97146 128.538 4.03341 128.512 4.09808 128.512H137.523C137.588 128.512 137.65 128.537 137.696 128.583C137.742 128.629 137.768 128.691 137.768 128.756C137.768 128.82 137.742 128.882 137.696 128.928C137.65 128.974 137.588 129 137.523 129Z" fill="#CCCCCC"/>
<path d="M28.9319 47.9771C27.8096 47.9739 26.7278 47.5577 25.8933 46.8081C25.0589 46.0586 24.5304 45.0282 24.4088 43.9141L21.804 19.7565C21.676 18.557 22.0297 17.3559 22.7875 16.4165C23.5453 15.4772 24.6453 14.8764 25.8461 14.7459L103.188 6.42997C104.389 6.30211 105.592 6.65528 106.533 7.41198C107.474 8.16869 108.075 9.26712 108.206 10.4663L110.811 34.6238C110.939 35.8233 110.585 37.0245 109.827 37.9638C109.07 38.9032 107.97 39.5041 106.769 39.6345L29.4265 47.9505C29.2622 47.9682 29.0971 47.9771 28.9319 47.9771Z" fill="#E6E6E6"/>
<path d="M102.336 7.55079C102.191 7.55084 102.046 7.55866 101.901 7.5742L27.3474 15.5903C26.8261 15.6464 26.3209 15.8044 25.8608 16.0554C25.4007 16.3064 24.9945 16.6454 24.6656 17.0532C24.3367 17.4609 24.0914 17.9293 23.9438 18.4317C23.7961 18.9341 23.749 19.4606 23.8052 19.9812L25.1222 32.1955C25.3351 34.1701 25.9354 36.0835 26.8888 37.8264C27.8422 39.5694 29.13 41.1077 30.6788 42.3536C32.2275 43.5995 34.0069 44.5286 35.9152 45.0878C37.8236 45.6471 39.8235 45.8255 41.8009 45.6128L94.2246 39.9761C96.196 39.7642 98.1062 39.1666 99.8463 38.2174C101.586 37.2682 103.122 35.9861 104.366 34.4442C105.61 32.9023 106.538 31.1309 107.096 29.231C107.654 27.3312 107.832 25.3401 107.62 23.3715L106.298 11.1114C106.193 10.1348 105.73 9.23147 104.999 8.57442C104.268 7.91737 103.32 7.55288 102.336 7.55079Z" fill="white"/>
<path d="M86.6368 20.2623L44.9677 24.7427C44.8486 24.7557 44.7281 24.745 44.613 24.7115C44.498 24.6779 44.3907 24.622 44.2973 24.547C44.2039 24.4719 44.1263 24.3793 44.0688 24.2743C44.0113 24.1692 43.9751 24.0539 43.9623 23.9349C43.9494 23.816 43.9602 23.6956 43.994 23.5808C44.0278 23.4659 44.0839 23.3589 44.1592 23.2657C44.2344 23.1726 44.3273 23.0952 44.4326 23.0379C44.5378 22.9806 44.6533 22.9446 44.7725 22.932L86.4415 18.4517C86.5607 18.4387 86.6812 18.4493 86.7962 18.4829C86.9113 18.5165 87.0185 18.5724 87.1119 18.6474C87.2053 18.7224 87.283 18.8151 87.3405 18.9201C87.3979 19.0251 87.4342 19.1404 87.447 19.2594C87.4598 19.3784 87.449 19.4987 87.4152 19.6136C87.3814 19.7284 87.3253 19.8354 87.2501 19.9286C87.1748 20.0217 87.0819 20.0992 86.9767 20.1564C86.8715 20.2137 86.7559 20.2497 86.6368 20.2623Z" fill="#6C63FF"/>
<path d="M87.2352 25.8198L45.5661 30.3002C45.3257 30.326 45.0848 30.2554 44.8965 30.1039C44.7081 29.9524 44.5878 29.7324 44.5619 29.4923C44.536 29.2522 44.6067 29.0116 44.7584 28.8236C44.9101 28.6355 45.1304 28.5153 45.3709 28.4895L87.0399 24.0091C87.2804 23.9833 87.5213 24.0539 87.7096 24.2054C87.8979 24.3569 88.0183 24.5769 88.0442 24.817C88.0701 25.0571 87.9994 25.2977 87.8477 25.4857C87.6959 25.6738 87.4756 25.794 87.2352 25.8198Z" fill="#6C63FF"/>
<path d="M51.0217 35.3356L46.1657 35.8577C45.9253 35.8836 45.6844 35.813 45.4961 35.6615C45.3077 35.51 45.1874 35.29 45.1615 35.0498C45.1356 34.8097 45.2063 34.5692 45.358 34.3811C45.5097 34.193 45.73 34.0729 45.9705 34.047L50.8264 33.5249C50.9456 33.5119 51.0661 33.5225 51.1811 33.5561C51.2962 33.5897 51.4034 33.6456 51.4968 33.7206C51.5902 33.7956 51.6679 33.8883 51.7254 33.9933C51.7828 34.0983 51.819 34.2136 51.8319 34.3326C51.8447 34.4516 51.8339 34.572 51.8001 34.6868C51.7663 34.8016 51.7102 34.9087 51.635 35.0018C51.5597 35.095 51.4668 35.1724 51.3616 35.2297C51.2563 35.2869 51.1408 35.3229 51.0217 35.3356Z" fill="#6C63FF"/>
<path d="M27.2918 20.7753C28.1983 20.7753 28.9332 20.0414 28.9332 19.1362C28.9332 18.2309 28.1983 17.4971 27.2918 17.4971C26.3853 17.4971 25.6504 18.2309 25.6504 19.1362C25.6504 20.0414 26.3853 20.7753 27.2918 20.7753Z" fill="#3F3D56"/>
<path d="M100.746 12.58C101.652 12.58 102.387 11.8461 102.387 10.9409C102.387 10.0356 101.652 9.30176 100.746 9.30176C99.8394 9.30176 99.1045 10.0356 99.1045 10.9409C99.1045 11.8461 99.8394 12.58 100.746 12.58Z" fill="#3F3D56"/>
<path d="M78.5544 46.2302C78.4036 46.0979 78.2841 45.9337 78.2048 45.7496C78.1254 45.5654 78.0881 45.366 78.0956 45.1656C78.1781 42.7849 77.7854 40.4115 76.9405 38.1838C76.8689 37.9965 76.8399 37.7956 76.8558 37.5958C76.8716 37.3959 76.9318 37.2021 77.0321 37.0284C77.1281 36.8615 77.2596 36.7176 77.4173 36.6068C77.575 36.496 77.755 36.4211 77.9448 36.3872C79.8527 35.2375 81.8085 34.9147 83.7592 35.428C84.0737 35.3818 84.3944 35.449 84.6638 35.6177C84.9332 35.7863 85.1335 36.0453 85.2289 36.3482C86.0186 38.9085 86.4579 41.5636 86.5348 44.2415C86.5422 44.5628 86.4332 44.8759 86.2279 45.1234C86.0227 45.3709 85.7349 45.5361 85.4174 45.5887L79.6451 46.541C79.4516 46.5733 79.2533 46.5622 79.0647 46.5084C78.876 46.4547 78.7017 46.3596 78.5544 46.2302Z" fill="#6C63FF"/>
<path d="M79.0672 39.293L83.9256 38.4915C83.9655 38.485 84.0038 38.4707 84.0382 38.4494C84.0726 38.4282 84.1025 38.4003 84.1261 38.3675C84.1497 38.3346 84.1666 38.2975 84.1758 38.2581C84.185 38.2188 84.1863 38.178 84.1798 38.1381C84.1732 38.0982 84.1587 38.06 84.1373 38.0257C84.116 37.9914 84.088 37.9617 84.0551 37.9382C84.0221 37.9146 83.9849 37.8979 83.9454 37.8888C83.906 37.8797 83.8652 37.8784 83.8252 37.8851L78.9669 38.6866C78.8865 38.7001 78.8147 38.7448 78.7673 38.811C78.7199 38.8772 78.7008 38.9595 78.7141 39.0398C78.7274 39.1201 78.772 39.1919 78.8382 39.2393C78.9044 39.2868 78.9867 39.3061 79.0672 39.293Z" fill="white"/>
<path d="M79.468 41.7197L84.3264 40.9182C84.4069 40.9049 84.4789 40.8602 84.5264 40.7939C84.5739 40.7277 84.5932 40.6453 84.5799 40.5649C84.5666 40.4844 84.5218 40.4126 84.4555 40.3651C84.3891 40.3176 84.3066 40.2984 84.2261 40.3117L79.3677 41.1133C79.3277 41.1197 79.2894 41.134 79.255 41.1553C79.2206 41.1766 79.1908 41.2045 79.1672 41.2373C79.1435 41.2701 79.1267 41.3073 79.1174 41.3467C79.1082 41.386 79.1069 41.4268 79.1135 41.4667C79.1201 41.5066 79.1345 41.5447 79.1559 41.5791C79.1773 41.6134 79.2053 41.6431 79.2382 41.6666C79.2711 41.6901 79.3084 41.7069 79.3478 41.716C79.3872 41.7251 79.4281 41.7264 79.468 41.7197Z" fill="white"/>
<path d="M79.8696 44.1455L84.728 43.344C84.8086 43.3307 84.8805 43.286 84.928 43.2197C84.9756 43.1535 84.9948 43.0711 84.9815 42.9906C84.9682 42.9102 84.9235 42.8384 84.8571 42.7909C84.7908 42.7434 84.7082 42.7242 84.6277 42.7375L79.7693 43.539C79.7294 43.5456 79.6912 43.56 79.6569 43.5813C79.6226 43.6026 79.5928 43.6305 79.5693 43.6633C79.5458 43.6961 79.5289 43.7332 79.5198 43.7725C79.5106 43.8118 79.5092 43.8525 79.5158 43.8923C79.5224 43.9322 79.5368 43.9703 79.5581 44.0046C79.5795 44.0388 79.6074 44.0686 79.6402 44.0921C79.6731 44.1156 79.7103 44.1324 79.7496 44.1416C79.789 44.1507 79.8298 44.152 79.8696 44.1455Z" fill="white"/>
</g>
<defs>
<clipPath id="clip0_6000_44260">
<rect width="150" height="129" fill="white"/>
</clipPath>
</defs>
</svg>
