<svg width="44" height="44" viewBox="0 0 44 44" fill="none" xmlns="http://www.w3.org/2000/svg">
<path d="M18.3332 36.2047V30.0667C18.3332 27.7153 20.157 25.864 22.8555 24.8089C21.1622 24.1781 19.3296 23.8334 17.4165 23.8334C13.9517 23.8334 10.7511 24.9642 8.16341 26.8767C9.77515 31.4498 13.5898 34.9837 18.3332 36.2047ZM34.6121 29.4909C33.8912 28.5132 31.4796 27.5001 28.4165 27.5001C24.7387 27.5001 21.9998 28.9607 21.9998 30.0667V36.6667C27.3633 36.6667 32.0544 33.7877 34.6121 29.4909ZM17.5082 21.0834C19.7863 21.0834 21.6332 19.2365 21.6332 16.9584C21.6332 14.6802 19.7863 12.8334 17.5082 12.8334C15.23 12.8334 13.3832 14.6802 13.3832 16.9584C13.3832 19.2365 15.23 21.0834 17.5082 21.0834ZM28.4165 22.9167C30.4416 22.9167 32.0832 21.2752 32.0832 19.2501C32.0832 17.225 30.4416 15.5834 28.4165 15.5834C26.3914 15.5834 24.7498 17.225 24.7498 19.2501C24.7498 21.2752 26.3914 22.9167 28.4165 22.9167ZM21.9998 40.3334C11.8746 40.3334 3.6665 32.1252 3.6665 22.0001C3.6665 11.8749 11.8746 3.66675 21.9998 3.66675C32.125 3.66675 40.3332 11.8749 40.3332 22.0001C40.3332 32.1252 32.125 40.3334 21.9998 40.3334Z" fill="white"/>
</svg>
