<svg width="24" height="25" viewBox="0 0 24 25" fill="none" xmlns="http://www.w3.org/2000/svg">
  <path
    d="M5.00391 9.50256C5.5562 9.50256 6.00391 9.95027 6.00391 10.5026C7.63868 10.5026 9.14255 11.063 10.3339 12.0021L12.5039 12.0026C13.836 12.0026 15.0329 12.5814 15.8569 13.5013L19.0039 13.5026C20.9962 13.5026 22.7163 14.6678 23.52 16.354C21.1552 19.4746 17.3258 21.5026 13.0039 21.5026C10.2132 21.5026 7.85369 20.8993 5.94303 19.8446C5.8046 20.2282 5.4363 20.5026 5.00391 20.5026H2.00391C1.45163 20.5026 1.00391 20.0549 1.00391 19.5026V10.5026C1.00391 9.95027 1.45163 9.50256 2.00391 9.50256H5.00391ZM6.00492 12.5026L6.00391 17.5237L6.04927 17.5571C7.84309 18.8175 10.182 19.5026 13.0039 19.5026C16.0079 19.5026 18.8025 18.3469 20.839 16.3731L20.9719 16.2396L20.8527 16.1392C20.3887 15.7762 19.8195 15.5509 19.2089 15.5095L19.0039 15.5026L16.8922 15.5016C16.9653 15.8235 17.0039 16.1585 17.0039 16.5026V17.5026H8.00391V15.5026L14.7939 15.5016L14.7595 15.4231C14.379 14.6295 13.592 14.0679 12.6683 14.0079L12.5039 14.0026L9.5745 14.0024C8.66726 13.0771 7.40315 12.5029 6.00492 12.5026ZM4.00391 11.5026H3.00391V18.5026H4.00391V11.5026ZM13.6503 4.07794L14.0036 4.43171L14.3574 4.07794C15.3337 3.10163 16.9167 3.10163 17.893 4.07794C18.8693 5.05425 18.8693 6.63716 17.893 7.61347L14.0039 11.5026L10.1148 7.61347C9.13851 6.63716 9.13851 5.05425 10.1148 4.07794C11.0911 3.10163 12.674 3.10163 13.6503 4.07794ZM11.529 5.49215C11.3554 5.66572 11.3362 5.93514 11.4704 6.12926L11.5279 6.19819L14.0029 8.67356L16.4788 6.19926C16.6523 6.02569 16.6716 5.75627 16.5366 5.5614L16.4788 5.49215C16.3052 5.31859 16.0358 5.2993 15.8407 5.43445L15.7714 5.49237L14.0023 7.26099L12.235 5.49108L12.1669 5.4343C11.972 5.2993 11.7026 5.31859 11.529 5.49215Z"
    fill="currentColor" />
</svg>