<svg version="1.0" viewBox="0 0 500 500" xml:space="preserve" xmlns="http://www.w3.org/2000/svg">
  <circle cx="250.01" cy="250" r="248.13" fill="#fff" stroke-width="7.4236" style="paint-order:fill markers stroke"/><g transform="matrix(1.3367 0 0 1.3367 -.58459 -3.1209)">
    <g stroke-width=".31506">
      <path d="m187.47 3.7301a185.63 185.63 0 0 0-185.63 185.63 185.63 185.63 0 0 0 185.63 185.63 185.63 185.63 0 0 0 185.63-185.63 185.63 185.63 0 0 0-185.63-185.63zm0 7.2073a178.34 178.43 0 0 1 178.34 178.43 178.34 178.43 0 0 1-178.34 178.43 178.34 178.43 0 0 1-178.34-178.43 178.34 178.43 0 0 1 178.34-178.43z" fill="#fc0808" style="paint-order:fill markers stroke"/>
      <path d="m188.88 27.467c-0.15778 0.44039-1.2307 2.8626-2.3667 5.3476-2.4298 5.3791-3.2187 7.7383-3.8498 11.324-1.0413 5.9768-0.2209 13.589 2.556 22.932 0.59956 2.0132 1.0729 3.7433 1.0729 3.8692 0 0.34602-2.2404 0.97516-2.5244 0.69205-0.12622-0.15728-2.3036-4.2466-4.828-9.091-4.1022-7.8642-7.4787-15.068-7.4787-15.886 0-0.18874-0.12622-0.31456-0.284-0.31456-0.47333 0-1.5778 4.6556-1.9565 8.1787-0.37865 3.7433-0.18933 10.286 0.53645 15.54 0.59956 4.7499 0.6311 4.6556-0.41021 4.4039-4.1338-0.97516-7.1-3.3344-9.2142-7.2979l-1.3253-2.4222 0.15777 5.9768c0.31555 12.079 2.7769 22.397 8.1413 34.351l1.5778 3.5546h40.833l1.6409-3.586c5.3013-11.576 7.7627-21.988 8.1729-34.571 0.0948-3.0513 0.12622-5.5678 0.0315-5.5678-0.0946 0-0.72575 0.9437-1.3884 2.0761-2.2404 3.8062-5.6169 6.3542-9.4982 7.2036-1.0413 0.2202-1.0413 0.18874-1.0413-1.0066 0-0.66059 0.12621-2.3592 0.31554-3.8063 0.72578-6.2913 0.97823-13.023 0.63111-16.672-0.34709-3.7433-0.85199-6.3542-1.2307-6.3542-0.12622 0-0.88355 1.6672-1.7356 3.6804-1.136 2.8311-9.1827 18.78-10.824 21.422-0.22089 0.34602-0.47334 0.31457-1.42-0.09436-0.66266-0.25165-1.1991-0.53476-1.1991-0.59768 0-0.06291 0.28399-1.0066 0.66266-2.1076 1.136-3.5861 2.7453-10.475 3.124-13.589 0.53644-4.2781 0.25244-10.664-0.63112-13.904-0.37867-1.3841-1.7671-5.0016-3.124-8.0214s-2.556-5.7251-2.6191-5.9768c-0.12621-0.34602-0.25243-0.25165-0.50488 0.31457z" fill="#fc0808"/>
      <path d="m151.43 79.496c-12.843 4.341-23.067 9.6572-33.165 17.238-14.326 10.727-26.349 25.102-34.048 40.673-6.532 13.243-9.5613 23.372-11.581 38.692-0.568 4.2781-0.568 22.145 0 26.581 1.7671 13.935 4.8911 24.568 10.95 37.339 7.3524 15.445 19.912 30.765 33.954 41.334 16.567 12.551 35.09 20.006 56.453 22.806 6.2796 0.81785 21.363 0.75495 27.864-0.1573 20.827-2.8626 39.16-10.318 55.443-22.617 6.1849-4.6556 14.989-13.212 20.006-19.409 2.8084-3.4917 8.1098-11.261 10.571-15.508 1.8302-3.1457 5.1435-10.129 6.9738-14.69 2.7138-6.7946 4.4809-12.834 5.8378-19.818 2.3667-12.205 2.7453-25.983 1.1044-38.692-0.3471-2.5794-0.44178-3.2086-1.6093-8.9652-2.9031-14.596-10.792-31.771-20.448-44.511-6.1534-8.1473-17.04-18.905-23.698-23.435-0.59957-0.40893-1.1676-0.84933-1.2622-0.94369-0.4102-0.50331-8.7093-5.7566-11.865-7.5181-4.1969-2.3278-11.108-5.4105-16.598-7.3923-2.2089-0.78642-4.1338-1.447-4.26-1.447-0.15778 0-0.59956 1.8874-0.97823 4.1837-1.2938 7.0777-4.4809 16.955-8.1413 24.977-0.15779 0.31458 0.31555 0.40894 1.8618 0.40894 2.4929 0 2.4613-0.0315 2.6507 4.2466 0.12623 2.5794 0.0315 3.6804-0.50488 5.8195-0.34713 1.447-0.63111 2.6424-0.56801 2.6738 0.0316 0.0315 1.2622 0.47185 2.7453 0.97515 5.112 1.7301 8.2676 4.6241 9.3404 8.5247 1.3884 5.1589-1.3569 11.041-6.532 14.03l-1.136 0.6606 1.0098 1.4155c1.5462 2.202 2.1773 4.4354 2.1458 7.7698-0.0316 6.197-3.2187 11.167-8.8671 13.809-0.78888 0.37747-1.3884 0.88078-1.4831 1.2583-0.0631 0.34603-0.28401 2.9569-0.47335 5.8195-0.18932 2.8626-0.41021 6.0082-0.53644 6.9834l-0.18932 1.8245h24.014l-1.0413 3.2086c-2.8085 8.6191-3.0924 15.949-0.91513 23.121 0.41024 1.4156 0.94668 2.7053 1.1991 2.8311 0.22087 0.12583 0.50489 0.84933 0.63112 1.5728 0.15776 1.1954 0.12621 1.3526-0.37869 1.3526-0.47333 0-0.72575 0.50333-1.2622 2.4222-1.2938 4.9072-1.4831 6.197-1.4516 11.261 0 5.5993 0.56803 8.6191 2.3351 12.834 0.50488 1.2268 0.88355 2.2649 0.85201 2.2963-0.0631 0.0628-6.5005 0.12581-14.326 0.15727l-14.232 0.0314-0.18935 1.7616c-0.0947 1.0066-0.63111 7.4552-1.136 14.376-0.50487 6.9205-1.0729 14.407-1.2307 16.672-0.18932 2.2334-0.41022 5.5049-0.50489 7.235-0.50489 8.1473-0.9782 9.7201-3.8813 12.834-1.2307 1.2897-3.5027 3.0828-4.1653 3.24-0.0948 0-0.56799 0.18874-1.1044 0.40894-1.8302 0.75495-4.0707 1.0381-7.0684 0.91223-2.6822-0.0944-3.3133-0.25165-5.396-1.2268-1.42-0.6606-2.9662-1.7301-3.8498-2.6109-1.8302-1.793-3.5027-5.096-4.0076-7.7698-0.18933-1.101-1.0729-11.576-1.9249-23.246-0.88355-11.67-1.6094-21.485-1.6725-21.799-0.063-0.53476-0.78887-0.56622-14.421-0.62913l-14.358-0.0628-1.3569-2.3592c-3.2186-5.6622-4.3231-9.4684-4.2916-14.627 0-4.5298 0.82046-7.4238 3.124-11.104 0.78891-1.2897 1.42-2.4536 1.42-2.6109 0-0.12583-0.6311-1.5099-1.3885-3.0198-2.9662-5.9453-3.976-11.513-2.9031-16.452 0.59956-2.7682 2.556-7.0148 4.3231-9.3741l1.2622-1.6357h24.14l-0.56799-7.1721c-0.28398-3.9321-0.53645-7.3608-0.56801-7.6125 0-0.25166-1.0098-1.0381-2.2404-1.7301-5.1436-2.894-7.5102-7.3923-7.1631-13.715 0.18931-2.894 1.0098-5.2218 2.5875-7.2979l0.78889-1.0381-2.0196-1.3212c-5.3644-3.5232-7.2578-9.9088-4.5124-15.382 0.97823-1.9818 3.976-4.6241 6.5636-5.8195 1.6093-0.75496 2.1458-1.1639 2.0196-1.5099-1.5462-3.8377-2.0827-8.1787-1.42-11.419l0.37867-1.793h2.2404c1.6409 0 2.1773-0.0945 2.0511-0.40894-4.6702-10.538-7.0684-18.245-8.3622-26.832l-0.53645-3.5861zm-33.575 45.769c2.4613 0.9437 5.2698 2.7053 7.6996 4.8443l2.0511 1.8245v61.97c0 34.068-0.063 61.938-0.12621 61.938-0.063 0-1.1676-0.47184-2.4298-1.0381-5.396-2.4536-9.2458-3.3659-14.137-3.3659-4.3231 0-7.3524 0.72351-11.612 2.8311-1.7671 0.84932-3.2818 1.5728-3.3764 1.5728-0.09461 0-0.18934-27.871-0.18934-61.97v-61.97l1.7356-1.3526c3.5027-2.7367 8.1729-5.0645 11.991-6.0082 1.5462-0.37747 6.6582 0.0628 8.3938 0.72351zm150.11-0.47185c0.91511 0.25165 2.5244 0.84933 3.6289 1.3841 2.1142 0.97514 6.4373 4.2781 7.2893 5.5364 0.47334 0.7235 0.50489 5.9767 0.50489 62.473 0 33.91-0.063 61.655-0.15778 61.655-0.063 0-1.4516-0.56621-3.0293-1.2897-4.8911-2.139-7.7942-2.8311-12.338-3.0198-5.2067-0.2202-8.6462 0.5033-13.032 2.7682-1.6724 0.84933-3.1871 1.5414-3.3449 1.5414-0.15776 0-0.28399-23.781-0.28399-61.907l0.0315-61.875 2.0195-1.5728c3.8813-2.9569 7.7627-4.9387 11.36-5.788 1.9249-0.44039 5.4906-0.37749 7.3524 0.0943z" fill="#019934"/>
    </g>
    <g transform="matrix(.31556 0 0 .31457 -4.9297 -2.4171)" fill="#019934">
      <path d="m688 606v3h57v9h-58v7h50.1l-0.3 4.7-0.3 4.8-25.2-0.4-25.3-0.3v2.3c0 1.3-0.3 3.4-0.6 4.6l-0.6 2.3h48.2v9h-49v7h53v9h-54v6h63v9h-32c-27.8 0-32 0.2-32 1.5s4.5 1.5 34.9 1.5h34.9l-1.9-6.2c-6.4-20.5-6.4-45.6 0.1-68.5 1.1-4 2-7.5 2-7.8s-14.4-0.5-32-0.5h-32z"/>
      <path d="m474.1 698.9c-4.3 6-8.3 18.2-8.9 26.8l-0.5 8.3 32.9 0.2 32.9 0.3 0.3 4.2 0.3 4.3h-65.7l0.8 7 34.2 0.2 34.1 0.3v9l-65.4-0.6 1 3 1.1 3.1 35.6 0.2 35.7 0.3 0.3 4.2 0.3 4.3h-68.2l1.4 2.6 1.3 2.5h36c19.7-0.1 36.2-0.1 36.6-0.1 0.3 0-0.2-1.7-1.2-3.8-2.5-5.1-5.7-15.4-7.1-23-2.6-14 0.8-36.8 7.6-50.2 1.4-2.7 2.5-5.2 2.5-5.5s-17.1-0.5-37.9-0.5h-38zm64.2 1.8 6.7 0.6v9l-9.7-0.6c-5.4-0.4-21.6-0.7-36-0.7h-26.3v-3.8c0-2.1 0.3-4.2 0.7-4.5 0.8-0.9 55.6-0.9 64.6 0zm-4.5 16 5.3 0.6-0.6 8.2h-71l-0.3-3.3c-0.6-6.5-2.2-6.2 31-6.2 16.7 0 32.7 0.3 35.6 0.7z"/>
      <path d="m373 464v45h-9l-0.2-44.3-0.3-44.3-3.2 0.8-3.3 0.9v91.9h-9.5l0.3-44c0.1-24.2-0.1-44-0.5-44-1.5 0.1-7.8 3.9-6.5 4 0.9 0 1.2 10.2 1.2 47.5v47.5h-9l-0.2-45.5-0.3-45.5-2.2 1.5-2.3 1.6v99.7l8.8-4.3c11.7-5.9 19.6-7.8 31.2-7.9 7.1 0 11.4 0.6 17 2.3 7.6 2.3 17.3 6.8 22.2 10.2 1.4 1.1 2.9 1.9 3.2 1.9s0.6-23.4 0.6-51.9v-51.9l-4.2-3.7c-7.7-6.6-17.1-10.6-28.5-11.9l-5.3-0.7zm17.8-12c0.2 15.1 0 36.6-0.3 47.7l-0.7 20.3h-8.9l0.1-47.4c0.1-26.1 0.4-47.7 0.8-48 0.3-0.4 2.4-0.6 4.7-0.4l4 0.3zm16.2-4.7c0 7.9-0.3 29.3-0.7 47.5l-0.6 33.2h-9l0.6-26.3c0.4-14.4 0.7-35.8 0.7-47.5v-21.2h9z"/>
      <path d="m352.8 535.9c-7 1.9-12.2 4.3-20 9.3l-4.8 3v62.4c0 34.3 0.2 62.4 0.5 62.4 0.2 0 2.6-1.3 5.2-2.8 5.6-3.3 14.4-6.8 21.1-8.3 7-1.6 21-1.3 28.3 0.6 7 1.8 19.3 7.2 23.8 10.4 1.6 1.2 3.2 2.1 3.5 2.1s0.6-28.1 0.6-62.4v-62.3l-5.3-3.6c-17.6-11.6-35.9-15.4-52.9-10.8zm18.7 17.3c0 8.7-0.1 32-0.3 51.8l-0.2 36h-9.3l0.7-51.2c0.4-28.1 0.9-51.5 1.2-52s2.2-0.8 4.2-0.6l3.7 0.3zm-16-9.1c0.4 0.5 0.4 23.9 0 52l-0.8 50.9h-8.9l0.5-51.8c0.3-28.4 0.6-51.8 0.6-52 0.2-0.8 8.1 0 8.6 0.9zm33.8 9.1c-0.1 2.1-0.2 25.4-0.2 51.8l-0.1 48h-4.4c-4.1 0-4.5-0.2-4.8-2.8-0.2-1.5-0.2-24.9 0-52l0.2-49.3 4.7 0.3 4.6 0.3zm-49.1 53.3-0.3 52h-8.4l0.4-51.5c0.2-28.3 0.6-51.9 0.8-52.3 0.3-0.4 2.1-0.7 4.1-0.5l3.7 0.3zm64.8 3.5v52h-9v-104h9z"/>
      <path d="m355.1 671c-5.2 1.1-15.6 5.9-22.3 10.2l-4.8 3v122.9l2.8-1.5c8.4-4.3 19.8-6.9 32.8-7.3 14.8-0.6 24 0.8 38.4 5.8 4.6 1.6 8.6 2.9 8.7 2.9 0.2 0 0.3-27.2 0.3-60.4v-60.3l-5.3-3.5c-13.3-8.9-22-11.9-35.7-12.3-5.8-0.2-12.5 0-14.9 0.5zm16.6 29.7c-0.4 13.7-0.7 37.1-0.7 52v27.3h-9.3l0.6-47.8c0.4-26.2 0.7-49.6 0.7-52v-4.2h9.3zm-16-18.3c0.3 0.2 0.2 23.7-0.2 52l-0.8 51.6h-9l0.6-52.3c0.4-28.7 0.7-52.4 0.7-52.6 0-0.5 8.1 0.6 8.7 1.3zm33.3 53.6c0 26.6-0.4 48.8-0.9 49.3s-2.5 0.7-4.5 0.5l-3.7-0.3 0.1-48.4c0-26.6 0.3-48.8 0.6-49.3s2.4-0.8 4.6-0.6l3.9 0.3zm-48-27.8c0 8.4-0.3 31.8-0.7 52l-0.6 36.8h-9l0.6-33.2c0.4-18.2 0.7-41.6 0.7-52v-18.8h9zm64 37.8v50h-9v-49.3c0-27.2 0.3-49.7 0.7-50 0.3-0.4 2.4-0.7 4.5-0.7h3.8z"/>
      <path d="m854 445.2c0 14.5-0.3 34.7-0.7 45l-0.6 18.8h-8.2l0.4-44 0.3-44h-2.3c-1.3 0-2.9 0.4-3.6 0.8-0.9 0.5-1.2 12.5-1.4 46.5l-0.2 45.7h-9.9l0.4-44c0.2-24.2-0.1-44-0.5-44-1.8 0-7.1 3.4-5.9 3.7 0.9 0.4 1.2 10.1 1.2 44.1 0 24-0.3 45.4-0.6 47.4-0.6 3.6-0.8 3.8-4.5 3.8h-3.9l-0.2-45.5-0.3-45.5-2.2 1.5-2.3 1.6v100l7.3-4c8-4.4 18.2-7.6 26.9-8.6 11.9-1.3 29.3 3.2 42.1 11 3.2 1.9 5.9 3.5 6 3.5s0.1-23.6-0.1-52.4l-0.2-52.5-3.8-2.9c-8.5-6.6-17.1-10.2-28.4-11.7l-4.8-0.6zm17.2-20c0.2 0.7 0.4 3.5 0.3 6.3-0.1 2.7-0.2 23.8-0.3 46.7l-0.2 41.8h-9v-47.3c0-26.1 0.3-47.7 0.7-48 1.2-1.2 8.1-0.7 8.5 0.5zm16.5 32c-0.4 13.3-0.7 34.6-0.7 47.5v23.3h-9v-46.9c0.1-25.8 0.4-47.1 0.7-47.5 0.4-0.3 2.7-0.6 5.1-0.6h4.5z"/>
      <path d="m833.8 535.9c-7.7 2.1-15.7 5.8-21.4 9.9l-3.9 2.8 0.3 62.1 0.2 62.1 8.8-4.3c11.1-5.6 19.1-7.6 30-7.6 13.6 0 25.1 3.3 38 11 2.9 1.7 5.4 3.1 5.5 3.1s0.1-28.2-0.1-62.7l-0.3-62.8-4.7-3.1c-17.2-11.2-35.8-14.9-52.4-10.5zm17.7 1.9c0.7 0.4 0.9 18.6 0.7 51.9l-0.3 51.3h-9l0.3-50.8c0.2-27.9 0.7-51.3 1.1-52 0.9-1.3 5.6-1.6 7.2-0.4zm-15 18.4c0 7.1-0.1 30.3-0.3 51.8l-0.2 39h-9v-51.3c0-28.3 0.3-51.7 0.7-52.1s2.5-0.6 4.8-0.4l4 0.3zm33.3 44.5-0.3 51.8-9.8 0.6 0.6-27.8c0.4-15.3 0.7-38.7 0.7-52.1v-24.2h9zm-48.4-31.2c0 8.3-0.1 31.8-0.2 52.2l-0.2 37.3h-9v-29.3c0-16 0.3-39.7 0.7-52.5l0.6-23.3 4.1 0.3 4.1 0.4zm64.6 40.5v52h-9v-104h9z"/>
      <path d="m836.4 671c-6.1 1.3-15.4 5.3-21.7 9.3l-5.7 3.7v123l3.9-1.9c7.8-4 18.1-6.3 31.2-6.8 14.8-0.6 22.2 0.4 36.7 5.3 5.7 1.9 10.4 3.4 10.5 3.4s0.1-27.2-0.1-60.5l-0.2-60.4-3.3-2.4c-5.2-3.9-14.1-8.6-20.4-10.8-6.5-2.3-24-3.4-30.9-1.9zm16.1 10.2c-0.1 2.7-0.2 25.9-0.3 51.8l-0.2 47h-9v-44.3c0-24.4 0.3-47.9 0.7-52.1l0.6-7.7 8.2 0.6zm-16 0.9c0.2 0.2 0.1 23.7-0.2 52.1l-0.6 51.8h-8.7v-51.8c0-28.5 0.3-52.2 0.7-52.6 0.7-0.7 8-0.3 8.8 0.5zm33.3 54.1-0.3 49.3-3.9 0.3c-2.1 0.2-4.3-0.1-4.7-0.5-0.5-0.5-0.6-22.5-0.2-49.6l0.6-48.7h8.8zm-48.4-27.7c0 8.2-0.1 31.5-0.2 51.7l-0.2 36.8h-9v-28.8c0-15.8 0.3-39.2 0.7-52l0.6-23.3 8.2 0.6zm64.6 37.5v50h-9v-49.3c0-27.2 0.3-49.7 0.7-50 0.3-0.4 2.4-0.7 4.5-0.7h3.8z"/>
      <path d="m474.8 605.2-1.5 2.3h9.1c5 0 21.1 0.1 35.9 0.3l26.7 0.2v9h-22.3c-12.3 0-28.5-0.3-36-0.7l-13.7-0.6v-3.6l-0.1-3.6-2.4 4.6c-3.2 6.1-5.5 15.5-5.5 22.2v5.4l33.1 0.8 33 0.7-0.3 4.2-0.3 4.1-32.9-0.4c-30.9-0.4-32.9-0.3-32.3 1.3 0.4 1 0.7 2.6 0.7 3.7 0 1.8 1 1.9 21.8 1.9 11.9 0 27.5 0.3 34.5 0.7l12.8 0.6-0.6 8.2h-32.8c-18 0-32.7 0.1-32.7 0.2s0.4 1.3 1 2.7l1 2.6h15.7c8.7 0 24.9 0.3 36.1 0.7l20.3 0.6-0.6 8.2-33.8-0.4-33.8-0.3 2.4 5.2h36.4c19.9 0 36.3-0.2 36.3-0.4 0-0.3-1.3-3.7-2.9-7.8-6.9-17.3-7.9-37.4-2.7-55.1 2.6-8.7 3.1-13.2 2-17.5l-0.6-2.2h-69.6zm46.9 18.8h17.3v9l-35.7-0.2-35.8-0.3-0.3-3.3c-0.7-6.7-1.1-6.6 19-5.9 10 0.4 25.9 0.7 35.5 0.7z"/>
      <path d="m681 699v3h64v9.3l-65-1v6.4c0 1.1 0 1.1 30.3 1.2l26.7 0.1v9h-57.9l-0.7 3.5c-0.3 2-0.5 3.8-0.3 4 0.3 0.2 12.7 0.7 27.7 1.1l27.2 0.7v9l-56-1.4v7.1h11.8c6.6 0 20.1 0.3 30 0.7l18.2 0.6v8.7h-61v5h16.3c8.9 0 24.7 0.3 35 0.7l18.8 0.6-0.6 8.2-70.5-0.8v4.3l38.5 0.2c33.9 0.3 38.5 0.1 37.9-1.2-0.3-0.8-1.7-5.8-3-11-3.2-12.2-4.1-29.2-2.4-42.6 0.7-5.4 1.4-12.1 1.5-14.8 0.2-2.7 0.8-5.1 1.3-5.5 1.1-0.6 3.2-5.4 3.2-7.2 0-0.5-14.1-0.9-35.5-0.9h-35.5z"/>
      <path d="m553.1 717.5c-4.3 15.2-4 31 0.9 45.5 1.7 5.2 3.5 9.8 3.9 10.3 1.1 1.1 0-11.6-1.1-13-0.5-0.7-0.8-4.5-0.6-8.5 0.3-6.9 0.2-7.3-1.9-7.6-2-0.3-2.3-0.9-2.3-4.8 0-3.6 0.3-4.4 1.9-4.4 1.7 0 1.8-0.8 1.4-9.8-0.6-12-0.7-12.7-2.2-7.7z"/>
    </g>
    <g transform="matrix(.31556 0 0 .31457 -4.9297 -2.4171)" fill="#fc0808">
      <path d="m588.5 68.2c-77.7 2.7-154.4 22.7-223 57.8-74.6 38.3-136.9 90.6-187 157-84.1 111.6-121.6 250.3-105.4 390 10.9 94.3 47.4 185.7 104.2 261.5 86 114.6 212.5 190.4 352.8 211.1 26.2 3.8 48.8 5.4 79.4 5.4 57.6 0 106.6-7.3 159.4-23.6 103.7-32.2 194-94 262.7-179.9 58.4-72.9 98.2-163.9 111.9-256 13.2-88.9 5-177.5-24.5-262-8-22.9-15.2-40-27-63.5-25.9-51.8-60.2-99.2-101.8-140.7-38.8-38.8-82.4-70.8-132.2-97.1-67.5-35.6-150.6-57.7-225-59.8-9.6-0.2-19.1-0.6-21-0.7s-12.5 0.1-23.5 0.5zm33.5 16.9c1.6 4.8 5.2 13.8 8 20 11.3 24.9 14.6 36.2 15.6 53.1 0.6 9-0.3 22.6-2.1 33.8-0.4 2.4 1.5-0.6 6-9.4 8.5-16.6 14.8-31.9 17.6-43l2.2-8.8 1.8 2.3c3.4 4.4 9.8 18.3 11.5 24.9 2.3 9.2 2.9 41.4 1.1 59.5-0.7 7.7-1.3 14.1-1.1 14.3 0.7 1 6.8-3.4 10.9-8 5.2-5.8 8.3-11.3 13-23.3l3.1-8h7.9l0.8 5c0.5 2.7 0.9 15.6 1 28.7l0.2 23.6 4 1.2c10.6 3.2 32.5 11.9 46 18.4 40 19.3 71.6 41.5 102.9 72.4 63.1 62.4 101.6 143 110.1 230.9 2.7 27.2 1.5 69.5-2.5 94.8-11 68.7-40 132.2-84.6 185.2-9.6 11.5-30.4 32.4-42.3 42.6-59.1 50.6-127.3 79.8-207.6 88.8-14.2 1.6-56.7 1.6-71.5 0-68.2-7.3-128.1-29.8-182.4-68.5-21.8-15.6-47.8-39.4-65.6-60.1-49.1-57.3-78.3-123.1-88.6-199.8-2.1-15.3-2.9-59.7-1.5-76.7 11.7-140.1 99-261.1 228.2-316.3 11-4.7 43-15.7 45.6-15.7 1.4 0 1.5-1.5 1-11.4-0.6-9.1 0.7-41.4 1.6-42.2 0.1-0.1 2-0.4 4.1-0.6l3.9-0.3 3.7 9.5c4.8 12.7 8.6 19.5 14.1 25.2 5.2 5.5 7.5 6.2 6.5 2-0.3-1.5-0.9-12.2-1.3-23.7-0.6-21.6 0.1-31.6 3.3-44.5 2.7-10.6 12.3-29.8 14.3-28.5 0.5 0.2 1.2 2.2 1.6 4.2 1.9 10.9 7.9 26.3 17.5 45 6.3 12.2 7 13.3 6.5 9.3-4.6-35.1-2.2-51 12.8-83.6 3.5-7.6 7.6-17.7 9.2-22.4 1.5-4.7 2.9-8.8 3.1-9.1s1.9-0.3 3.9 0c3.5 0.6 3.7 0.8 6.5 9.2zm-179.9 72.8c10.7 29.4 13.1 37.4 13.2 43.6 0.1 11.7-7.2 19.3-23.6 24.5-12 3.9-22 1.5-28.3-6.8-4.7-6-22.6-53.5-20.8-55.1 0.5-0.5 3.7-1.8 7.2-2.9 4.6-1.6 6.4-1.8 6.8-0.9 0.2 0.7 4.2 11.5 8.9 24.2 9.6 26.1 11.2 28.5 18.8 28.5 6.3-0.1 12.3-3.2 14.4-7.5 2.1-4.5 1.9-5.6-8.1-32.8-4.1-11.1-7.6-20.8-7.8-21.6-0.3-1.3 11.5-7.2 13.6-6.7 0.4 0.1 3 6.2 5.7 13.5zm388.7 4.5c9.2 4.7 18.6 10.1 21 12.1 5.2 4.5 8.2 10.1 8.2 15.3 0 5.7-4.6 14.1-9.8 17.7-3.8 2.6-5.2 3-11.3 3-3.8 0-6.9 0.2-6.9 0.5s0.6 1.5 1.4 2.6c1.9 2.6 3.3 10.8 4.2 23.3 0.4 5.6 1.1 10 1.5 9.9 0.5-0.2 9.8-13.2 20.9-29l20-28.7 11.8 8.1c8.9 6.2 30.2 21.2 33 23.4 0.6 0.4-6.9 10.4-7.8 10.4-0.4 0-3.4-1.9-6.6-4.3-3.3-2.3-10.2-7.3-15.5-10.9l-9.7-6.7-4.1 5.8c-2.2 3.3-4.1 6.2-4.1 6.5 0 0.2 6.3 4.9 14 10.2 7.8 5.3 14.3 10.1 14.6 10.5 0.5 0.9-4.8 9.3-6.4 10.3-0.5 0.3-7.2-4-15-9.4-7.8-5.5-14.5-10-14.9-10-0.5 0-3.1 3.4-6 7.4l-5.1 7.4 16.3 11.4c9 6.2 16.4 11.7 16.4 12.3 0 0.5-1.5 3.2-3.5 5.8-2.5 3.4-3.9 4.6-4.7 3.9-0.7-0.5-10.4-7.3-21.7-15.2-11.3-7.8-21.2-14.8-22-15.5-0.8-0.8-4.6-3-8.5-5.1-3.8-2-7.3-4-7.7-4.3s-1.4-6.7-2.3-14.1-2.1-15.2-2.6-17.2c-1-3.9-7-9.8-9.9-9.8-1 0-3.9 4.7-8 13-3.5 7.1-6.8 13-7.3 13-1.7 0-12.7-6.3-12.7-7.3 0-1.8 32.3-64.7 33.2-64.7 0.5 0 8.4 3.8 17.6 8.4zm-481.7 31.6c7.2 2 14.9 13 14.9 20.9 0 3.2-3.1 10.1-5.3 12-2.6 2.1-2.1 2.8 2.8 3.4 6.1 0.9 31.5 11.9 31.5 13.7 0 0.4-3.2 2.8-7.2 5.4l-7.2 4.7-14.1-6c-17.2-7.3-18.3-7.6-22.6-5.8-7.9 3.4-7.9 3 1 16.5 4.5 6.7 8.1 12.4 8.1 12.7 0 0.2-2.7 2.3-6.1 4.6-5.1 3.4-6.3 3.9-7.4 2.8-1-1.1-18.3-27.7-36.1-55.5l-3.3-5.2 14.8-9.6c23.7-15.3 27.7-17 36.2-14.6zm590.1 41.1c14.3 13.6 26.1 25.6 27.2 27.8 4 7.9 2.1 17.3-4.8 24.4-5.9 6.1-10 8.1-16.6 8.1-7.1 0-10.9-1.9-19.5-9.9-3.8-3.6-7.7-7-8.7-7.5-1.3-0.8-3.2 0.8-10.3 8.5-4.8 5.2-9.1 9.5-9.5 9.5-1 0-11-9-11-9.8 0-0.4 1.7-2.5 3.8-4.7 2-2.2 9.1-9.9 15.7-17 6.6-7.2 15-16.2 18.7-20 3.6-3.9 7.6-8.2 8.8-9.8 1.2-1.5 2.3-2.7 2.5-2.7 0.3 0 1.9 1.4 3.7 3.1zm-649.6 29.1c20.6 20.8 23.4 24.9 23.4 33.3 0 6.8-3.2 12.8-10.9 20.6-8.1 8-13.7 10.9-21.2 10.9-9-0.1-13.6-3.5-37.4-27.7l-14.9-15.3 4.9-5c2.7-2.7 5.4-5 6-5s8.5 7.5 17.5 16.6c9.1 9.1 17.7 17.4 19.2 18.5 9.5 6.9 25.4-5.8 20.3-16.4-0.8-1.8-9.6-11.3-19.5-21.2l-18-18 5.2-5.2c2.9-2.9 5.5-5.3 5.8-5.3 0.4 0 9.2 8.7 19.6 19.2zm701.6 25 4.8 6-11.8 9.5c-29.2 23.6-32.1 26.7-30.6 33.1 1.6 6.6 8.2 13.2 13.3 13.2 3.3 0 7.8-2.6 16-9.4 4.1-3.4 12.6-10.3 19-15.5l11.5-9.4 2.4 2.9c6.1 7.5 7.4 9.5 6.6 10.3-3.4 3-33.1 26.6-38.1 30.3-15 11-28.2 7.5-40.6-10.9-8.4-12.4-7.5-23.4 2.9-33.5 5-4.8 38.5-32.6 39.4-32.7 0.3 0 2.6 2.7 5.2 6.1zm-769.2 37.4c1.7 0.3 3 0.9 3 1.4 0 0.4-1.3 3.7-2.9 7.2l-2.8 6.4h-4.9c-6 0-9.9 2.2-13.8 7.6-3.1 4.3-4.3 10.3-3.2 16.2 1.4 7.3 14.9 18.3 24.8 20 4.9 0.9 10.9-0.8 14.9-4.1 4.2-3.6 7.9-11.6 7.9-17.4 0-3.9-0.4-4.8-3-6.7-1.6-1.2-3.1-2.2-3.3-2.2s-2.5 3.1-5.1 7l-4.6 7-5-3.6c-2.8-2-5-4-5-4.6 0-1 14.2-22.2 16.6-24.7 1.1-1.3 3-0.4 12.9 6.3 7.9 5.2 11.9 8.5 12.6 10.4 1.5 3.7-1.1 17-4.7 24.6-5.9 12.5-18.1 22.1-29.6 23.3-15.6 1.6-33.8-8.8-41-23.5-2.9-5.8-3.3-7.6-3.3-14.7 0-6.9 0.4-8.9 3.1-14.5 3.6-7.7 11.8-17 17.1-19.6 6.7-3.2 10.5-3.5 19.3-1.8zm821.6 38.6c9.9 18.2 9.9 18.3 9.9 25.4 0 6.2-0.3 7.5-2.8 10.7-5.2 6.8-14.3 9.4-21.9 6.2-1.5-0.6-1.8-0.2-1.8 2.8 0 17.8-24.6 25.4-35.6 11.1-4.1-5.4-5.2-7.2-14.5-24-4.4-8.1-7.7-15-7.2-15.4 0.4-0.4 9.1-5.4 19.3-11 10.2-5.7 23.9-13.4 30.5-17.1s12.5-6.8 13.1-6.8c0.7-0.1 5.6 8.1 11 18.1zm29.5 59.8c1.3 3.8 2.1 7.1 1.8 7.4-0.2 0.2-12.2 4.3-26.6 9-30.4 10-29.3 9.6-29.3 10.5 0 0.4 2.5 8 5.5 17.1 3 9 5.3 16.6 5.1 16.7-0.5 0.5-10.9 4.3-11.8 4.3-0.7 0-6.2-16.2-12.7-37.3l-3.9-12.7 25.2-8.1c13.8-4.4 28.9-9.3 33.6-10.9s9-2.9 9.7-2.9c0.6-0.1 2.2 3 3.4 6.9zm-893.4 25.6c18 5.8 33.2 11 33.7 11.5 0.6 0.6 0.2 3.5-1.2 7.8l-2.2 6.9-25.5 6.3c-14 3.5-25.5 6.7-25.5 7.1 0 0.5 0.5 0.8 1.2 0.8 1.5 0 39.1 12.2 40.1 13 0.5 0.5-2.7 12.5-3.8 13.8-0.2 0.2-13.9-4.2-30.6-9.6-16.7-5.5-32.2-10.6-34.4-11.2-2.2-0.7-4.3-1.4-4.7-1.6-0.8-0.5 3.1-12.5 4.6-14 0.6-0.6 11.8-3.7 25-6.8 13.1-3.2 24.7-6.1 25.7-6.4 1.3-0.5-4.9-2.9-19.7-7.7-11.8-3.8-21.7-7.1-21.9-7.4-0.2-0.4 0.6-3.7 1.8-7.4 1.4-4.4 2.5-6.6 3.4-6.3 0.7 0.3 16 5.3 34 11.2zm910.1 27.2c1.2 3.8 2.2 7.1 2.2 7.4 0 0.7-3.9 2.2-10.5 4.2-2.7 0.8-17 5.1-31.7 9.5-14.7 4.5-27.2 8.1-27.7 8.1-1.2 0-5.2-13.3-4.3-14.2 0.7-0.7 66.6-21.5 68.8-21.7 0.5-0.1 2 3 3.2 6.7zm6.8 25.9c0.4 2.1 0.8 5.6 0.8 7.8l0.1 3.9-14.5 2.7c-8 1.5-14.7 2.8-14.9 2.8-0.2 0.1 5 3.5 11.5 7.7 6.5 4.1 14.5 9.4 17.8 11.7l6.1 4.3 1.7 9.4c0.9 5.2 1.5 9.7 1.3 9.8-0.2 0.2-7.5-4.4-16.2-10.3s-16.1-10.7-16.4-10.8-7.1 5.9-15 13.4c-18.5 17.5-23.3 21.8-24 21.9-0.3 0-1.2-3.5-1.8-7.8-0.7-4.2-1.4-8.4-1.7-9.3-0.3-1.2 3.7-5.2 13.3-13.4 7.6-6.5 14.4-12.3 15.1-13 1-0.8-0.1-2-5-5.4l-6.3-4.4-9 1.3c-14.9 2.2-13.8 2.6-15.2-5.5-0.6-3.9-0.8-7.3-0.5-7.6 0.4-0.4 7.9-1.9 16.7-3.4 8.8-1.6 23.9-4.3 33.5-6.1 22.9-4.2 21.8-4.2 22.6 0.3zm-904.6 37.2c0 3.8-0.3 7.6-0.6 8.5-0.3 0.8-2.9 2.2-5.7 3.1-10.5 3.3-10.6 3.4-11.1 7.9-0.3 2.2-0.8 8.6-1 14.2l-0.6 10.1 7.8 3.1 7.7 3 0.3 6.3c0.6 12.2 2.9 12.4-28.5-1.8-15.3-6.8-31.5-14.1-36-16.1l-8.3-3.7 0.7-8c0.3-4.4 0.7-8.1 0.8-8.3 0.4-0.5 72-25.1 73.3-25.1 0.8-0.1 1.2 1.9 1.2 6.8zm915.5 73.1v7.5l-36.7 0.3-36.8 0.2v-16l36.8 0.2 36.7 0.3zm-928.6 14.4c4.2 2.2 9.7 9.1 11.5 14.4 0.9 2.5 1.9 8 2.2 12.2 1.4 16.8-5.6 26.5-21.6 29.8-10.3 2.1-48.2 6.4-49 5.6-0.5-0.5-1.2-4.1-1.5-8l-0.7-7 22.8-2.8c12.6-1.5 24.8-3.2 27.1-3.8 5.9-1.4 8.5-4.6 9.1-11.1 0.6-7.2-1.6-12.2-6.3-14.4-3.4-1.6-4.5-1.6-29.3 1.5-14.1 1.7-26 2.8-26.4 2.4-1.1-1.1-2.2-15.2-1.3-15.2 0.5 0 9.6-1.1 20.4-2.5 10.8-1.3 21.4-2.6 23.6-2.8 6.6-0.8 16.3 0.1 19.4 1.7zm893.9 4.5c18.9 2.7 34.6 5.2 34.9 5.4 0.2 0.3 0.1 3.7-0.3 7.6l-0.6 7-4.2 1.9c-2.2 1-13.4 5.9-24.8 10.8s-20.8 9.1-20.8 9.4 9.1 1.8 20.3 3.4c27.8 3.8 25 2.7 24.2 10-0.4 3.3-1.1 6.5-1.5 7-1.3 1.4-72.5-8.4-72.5-9.9 0.1-0.6 0.5-4.1 0.9-7.8l0.9-6.9 7.1-3.2c3.9-1.8 14.8-6.6 24.3-10.7 9.5-4 16.7-7.6 16-8-0.7-0.3-10.5-1.9-21.9-3.5-23.4-3.2-21.4-1.9-20.2-12.2 0.5-3.9 1.1-5.2 2.3-5.2 0.9 0 17.1 2.2 35.9 4.9zm-12.6 70.2c17.2 5 32.8 9.5 34.6 10 1.7 0.6 3.2 1.5 3.2 2.1 0 2.1-9.1 32-10.7 35.1-3.1 6.1-6.5 9.7-11.9 12.3-17.8 8.7-47.9-1.3-55.6-18.4-3.3-7.2-2.7-14.5 2.8-33.5 2.6-9.2 5.1-16.7 5.6-16.7 0.4 0 14.9 4.1 32 9.1zm-918.7 23.9c1.6 5.5 3.2 10 3.5 10 0.4 0 8.3-2.3 17.6-5 16.1-4.8 33.5-9.7 38-10.7 1.8-0.4 2.3 0.5 4.2 6.8 1.2 4 2.1 7.3 1.9 7.5s-31.6 9.4-48.2 14.2c-4.9 1.4-9.1 2.6-9.3 2.8-0.2 0.1 1 4.8 2.6 10.4 2.1 7.1 2.7 10.3 1.9 10.6-5.1 1.8-11.3 3.2-11.8 2.6-0.7-0.8-15.9-53.4-15.9-55 0-1 7.7-3.9 11.1-4.1 1.1-0.1 2.3 2.5 4.4 9.9zm73.4 40.8 3.4 7-5.7 6.6-5.8 6.6 6.3 12.5c7.1 14 6 13.3 17.6 11.6 2.9-0.4 5.7-0.5 6.2-0.2 1.3 0.9 7.3 13.2 6.7 13.8-0.4 0.5-73.7 8.3-77.1 8.2-1.7 0-7.9-13.4-6.9-15.1 1.8-3 50.8-58.7 51.3-58.3 0.4 0.2 2.2 3.5 4 7.3zm819.2-0.9c19.9 5.1 33 18.9 33 35 0.1 10.6-3.5 19.4-10.9 27.4-12.1 12.9-28.4 14-47.6 3.3-7.2-4-12.8-9.8-15.9-16.6-1.6-3.4-2.1-6.5-2.2-13 0-7.8 0.3-9.2 3.6-16 6.7-13.8 17-21.2 30.5-21.9 1.1-0.1 5.4 0.8 9.5 1.8zm-43.3 63.9c5.9 3.7 16.3 10.4 23.2 14.7s15.5 9.8 19.2 12.2l6.8 4.2-3.1 5.3c-1.7 2.9-3.6 5.9-4.2 6.6-0.8 1-6.7 1.1-28.6 0.6-24.3-0.5-27.4-0.4-25.6 0.8 1.1 0.8 7.6 5 14.5 9.3 18.9 11.8 23 14.5 23 15.2 0 1.4-6.5 11.3-7.4 11.3s-55.1-33.6-59.5-36.9l-2.5-1.9 4-6.3 4-6.4h26.2c14.4 0 26.2-0.2 26.2-0.5s-8.2-5.7-18.2-12c-10.1-6.2-18.5-11.5-18.7-11.6-0.1-0.1 1.4-3 3.5-6.4 2.4-3.8 4.2-5.9 5.1-5.6 0.7 0.3 6.2 3.6 12.1 7.4zm-734.1 18.2c5.9 3.4 10.8 9 15.2 17.3 5.7 10.9 5 20.8-2 29.8-2.2 2.7-4.3 4.9-4.8 4.9s-3-2.5-5.5-5.5l-4.7-5.5 2.8-3.7c3.9-5.1 3.9-12.1 0-18-6.4-9.3-17.7-9.3-17.7 0 0 1.4 1.4 6.9 3.1 12.3 5.4 17.6 5 25.1-2.1 32.1-3.6 3.7-9.3 6.3-13.6 6.3-14.2 0-31.2-23.8-27.4-38.1 1.1-3.9 6.6-11.9 8.6-12.6 0.6-0.2 3 2.2 5.4 5.3l4.3 5.7-2.3 4.2c-2.7 4.9-2.4 8.5 1.2 13.9 3.7 5.6 9.8 8.2 12.6 5.4 2-2 1.4-7.1-2.3-18.8-4.1-13-4.5-20.1-1.5-25.9 5.7-11.2 19.7-15.4 30.7-9.1zm711.2 53.9c14.4 13.4 26.1 24.8 26.1 25.3 0 1-34.2 38.2-36.2 39.4-0.5 0.4-2.9-1.3-5.3-3.6l-4.4-4.3 4.2-4.8c2.3-2.6 8.2-9.1 13.1-14.4l8.9-9.6-5.3-5.4-5.4-5.4-7.5 8.2c-4.2 4.5-9.8 10.6-12.6 13.4l-5 5.3-9.6-9.2 12.5-13.3 12.5-13.2-6.4-6.2c-3.6-3.3-6.9-6.1-7.3-6.1-0.5 0-6 5.5-12.2 12.2-6.3 6.8-12.3 13.3-13.5 14.6l-2.2 2.3-4.7-4.2c-2.6-2.3-4.5-4.5-4.4-4.9 0.3-0.9 16.7-18.6 28.3-30.8 4.4-4.6 8.2-8.8 8.4-9.3 0.1-0.6 0.7-0.9 1.1-0.7 0.5 0.2 12.6 11.3 26.9 24.7zm-666.4-0.9 5.9 6-3.2 15.7c-1.8 8.7-3.2 16.7-3.2 17.9 0 2.5 5.5 10.4 7.2 10.4 0.7 0 5.9-4.6 11.6-10.3l10.3-10.2 5.4 5.6 5.5 5.7-10.2 9.8c-5.6 5.5-17.4 16.9-26.1 25.4s-16.2 15.6-16.6 15.8c-0.4 0.1-2.4-1.5-4.4-3.7s-8.6-9.2-14.6-15.6c-15-16-17.5-21.7-13.2-31 2-4.4 8.7-11 12.7-12.5 4.1-1.6 10.2-1.1 14.4 1 2.2 1.1 4.1 2 4.4 2 0.2 0 0.4-2.6 0.4-5.8-0.1-5.7 5.8-32.2 7.1-32.2 0.4 0 3.3 2.7 6.6 6zm607.8 30.3c2.3 1.4 5.1 3.5 6.1 4.6l2 2.2-5.2 5.2c-4.5 4.5-5.4 5-7 3.9-8.2-5.9-17.4-4-23.5 4.8-2.5 3.6-2.2 9.4 0.6 12 2.8 2.7 5.8 2.3 15.7-2.3 18.9-8.8 25.7-8.9 34.1-0.8 12.1 11.8 6.8 28-13.1 39.9-3.8 2.3-5.6 2.7-12 2.7-6.9 0-7.9-0.3-12.2-3.3-2.7-1.8-4.8-3.6-4.8-4s2.5-2.9 5.6-5.6c5.6-4.9 5.6-4.9 8.4-3.3 3.3 2 7.2 2.2 10.3 0.6 4.2-2.2 8.7-7.3 9.3-10.6 1.3-6.7-3.1-7.9-13.1-3.7-16 6.9-20.3 8.3-24.5 8.3-6 0.1-11.7-2.7-16.2-7.7-11-12.2-5.8-28.6 12.8-40.8 2.8-1.8 6.6-3.7 8.5-4.3 5.2-1.6 13.4-0.6 18.2 2.2zm-517 41.7c7.5 5.1 13.7 9.8 13.7 10.3s-1.5 3-3.4 5.6c-1.8 2.5-10.7 15.6-19.7 29.1-9 13.4-16.7 24.8-17 25.3-0.4 0.6-2.2-0.2-4-1.5-1.9-1.4-12-8.4-22.6-15.5l-19.2-13 3.2-5.1c1.8-2.8 3.6-5.2 4.2-5.2 0.5 0 8 4.8 16.7 10.7s15.9 10.5 16.1 10.2c4.4-6.2 7.7-12.3 7-12.9-0.4-0.4-7.2-5.1-15-10.4l-14.2-9.7 7.4-10.6 14.7 9.9c8.1 5.4 15.1 9.8 15.5 9.8 0.9 0 10.8-14.9 10.2-15.4-0.3-0.2-18.2-12.3-32.3-21.8-0.6-0.4 0.5-2.9 2.8-6.3l3.7-5.6 9.2 6.4c5.1 3.5 15.4 10.6 23 15.7zm473.8 5.8c23.3 34.5 27.1 40.3 26.8 40.6-0.7 0.6-10.4 7.2-11.5 7.9-0.7 0.4-8.4-10.2-20-27.3-10.3-15.4-18.9-27.9-19-27.7-0.1 0.1 2 15.9 4.7 35.2 2.6 19.2 4.8 35.6 4.9 36.2 0 1.3-9 6.9-12.7 7.9-2.2 0.6-5.9-2.3-51.9-40.2l-11.2-9.1 15-8.4 6.3 5.6c3.5 3 6.8 5.5 7.3 5.5 0.6 0 4.1-1.7 7.9-3.9 3.7-2.1 8.8-5 11.3-6.4 4.1-2.3 4.5-2.8 4.5-6.4-0.1-2.1-0.4-6.1-0.9-8.9l-0.8-5.2 5.8-3.3c3.2-1.8 6.5-3.9 7.4-4.6 3.4-2.9 11.5-8 12.2-7.7 0.3 0.2 6.6 9.3 13.9 20.2zm-395.5 29.1c4.4 1.8 6.8 3.3 6.6 4.2-0.7 2.8-25.4 66.4-26 67-1 0.9-33-12-37.9-15.3-11.3-7.5-11-26.1 0.7-36 7.6-6.5 17.1-6.5 32.3 0.1 6.2 2.7 7.4 2.6 8.3-0.2 1.1-3.7 8.5-22.7 8.8-22.7 0.2 0 3.4 1.3 7.2 2.9zm248.9 18.3c4.3 17.7 14.3 62.4 14 62.9-0.8 1.2-12.6 3.2-13.4 2.3-0.8-0.8-13.8-57.5-14.3-62.5-0.3-1.9 0.4-2.4 4.2-3.5 7-1.9 8.9-1.7 9.5 0.8zm-168.2 3.7c8.5 1.6 17.1 3.7 19 4.6 4.3 2 8.5 7.3 9.9 12.2 2.5 9-2.8 20.8-11.2 25-5.1 2.6-9.3 2.8-20.5 0.8-4.3-0.8-8.1-1.2-8.4-1-0.2 0.3-1.2 5.3-2.2 11.2s-2 11.2-2.3 11.9c-0.3 0.8-2.1 0.8-6.8-0.1l-6.3-1.1 0.2-4.5c0.1-2.4 2.5-17.2 5.3-32.9 2.7-15.6 5-28.6 5-28.7 0-0.7 3.6-0.2 18.3 2.6zm141.4 4c7.1 3.3 11.5 12.9 9.9 21.6-0.8 4.2-6.3 10.7-10.6 12.5l-3 1.2 3.9 2.8c2.1 1.5 7.7 7.5 12.4 13.1 9.8 11.7 9.9 10.9-1.9 12.3l-6.1 0.7-8.9-10.5c-4.9-5.7-10.1-11.1-11.6-12-2.6-1.6-11.8-2.3-11.8-0.8 0 0.4 0.7 6.2 1.5 12.7 0.8 6.6 1.5 12.5 1.5 13.2 0 1.7-13 2.9-14 1.3-0.4-0.7-1.1-4.4-1.4-8.4-0.4-3.9-2.1-18.3-3.7-31.9-1.7-13.7-2.9-25-2.7-25.2 0.6-0.6 31.5-4.3 36.8-4.4 3.4 0 7.1 0.7 9.7 1.8zm-68.9 3.5c5.9 1.6 8.4 3 12.6 7.2 2.8 2.9 7.1 11.2 6.2 12.2-0.7 0.6-8.5 2.1-11.7 2.2-2 0-3-0.7-3.9-3-2-4.8-5.5-6.5-13.7-6.5-5.6 0-7.7 0.4-10 2.1-10.3 7.4-10.3 31.4 0 38.8 3.8 2.8 16.5 2.9 21.5 0.3 2.8-1.5 3.2-2.3 3.2-5.7v-3.9l-7.2-0.3c-7.2-0.3-7.3-0.3-7.6-3.2-0.2-1.6-0.1-4.4 0.3-6.3 0.6-3.2 0.8-3.3 5.3-3.3 2.6 0 9.1 0.3 14.5 0.7l9.7 0.6v26.7l-4.7 3.1c-11.5 7.2-27.7 8.9-39 4-6.9-3-13.4-10.1-16.3-17.7-3-8.1-3.1-20.6-0.1-28.5 6.2-16.3 22.9-24.2 40.9-19.5z"/>
      <path d="m816.8 180.4-3.7 7.5 4.7 2.6c6.6 3.8 15.8 7.5 18.2 7.5 1.2 0 3.2-1.1 4.5-2.5 3.1-3 3.4-9.3 0.8-11.8-2.2-1.9-18.4-10.7-19.8-10.7-0.6 0-2.7 3.3-4.7 7.4z"/>
      <path d="m336.5 209.6c-8.3 4.3-17.5 11-16.9 12.4 0.9 2.6 7.9 13 8.7 13 0.9 0 7.3-4.1 14.3-9.2 5.7-4.1 7.2-7.4 5.3-12-1-2.5-5.3-5.8-7.6-5.8-0.4 0-2.1 0.7-3.8 1.6z"/>
      <path d="m931.1 260.1-6.4 7.1 5.4 4.9c9.4 8.5 14.3 9.6 19.5 4.4 2.8-2.8 3.1-7.2 0.9-11.4-1.4-2.7-11-12.1-12.4-12.1-0.4 0-3.6 3.2-7 7.1z"/>
      <path d="m1022.8 370c-3.1 1.6-5.9 3.4-6.3 4-0.7 1.1 5.1 12.2 9.2 17.7 1.9 2.6 3.1 3.3 5.7 3.3 4.8 0 8-2.9 7.9-7.1-0.1-3.1-8.9-21-10.3-20.9-0.3 0.1-3.1 1.4-6.2 3z"/>
      <path d="m996 385.1c-3.6 2.1-6.9 4-7.4 4.2-1.1 0.4 8.5 17.4 11.9 21.1 2.2 2.4 3.2 2.8 6.2 2.3 4.6-0.8 7.1-3.1 7.9-7.3 0.5-2.8-0.3-5.2-4.7-13.9-3-5.8-5.8-10.5-6.4-10.4-0.5 0-3.9 1.8-7.5 4z"/>
      <path d="m147.5 564.6c-6 1.9-11 3.6-11.2 3.8-0.3 0.2 23 10.5 23.3 10.2 0.1-0.1 0.5-4 0.9-8.9 0.5-7 0.4-8.7-0.7-8.6-0.7 0-6.2 1.6-12.3 3.5z"/>
      <path d="m1035.6 714.1c-4.3 12.4-4.9 20.7-1.9 24.7 4.1 5.6 18.6 11.2 29.1 11.2 7.4 0 11-2.9 14.3-11.5 1.5-3.9 3-8.4 3.3-10l0.6-3-20.7-5.9c-11.5-3.2-21.6-6.1-22.5-6.4-1-0.2-2 0.2-2.2 0.9z"/>
      <path d="m188.2 808.2c-4.5 5-8.1 9.3-7.9 9.5 0.6 0.5 22.5-2 23.8-2.8 1-0.6-5.8-15.9-7.1-15.9-0.3 0-4.2 4.1-8.8 9.2z"/>
      <path d="m1014 784.3c-7.7 4-11.3 15.4-7.6 24 2.9 7.1 15.2 14.5 25.7 15.4 11.1 1.1 19.2-5.8 20.5-17.3 0.4-3.9 0.1-5.8-1.8-9.4-6.1-11.9-25.7-18.6-36.8-12.7z"/>
      <path d="m274.3 946c-3.8 2.3-5 5.9-3.4 9.8 0.7 1.5 4.4 6.2 8.4 10.5l7.2 7.8 6.2-6.3 6.3-6.3-7.9-8c-10.2-10.2-11.5-10.8-16.8-7.5z"/>
      <path d="m823.3 1011.3c-4 2.3-7.3 4.4-7.2 4.7 0 0.5 19.3 17 19.5 16.7 0.4-0.5-4.1-25.7-4.6-25.6-0.3 0-3.8 1.9-7.7 4.2z"/>
      <path d="m425.2 1039.7c-1.7 0.7-4.2 5.7-4.2 8.6 0 4 3.6 7.3 11.4 10.6 4.1 1.7 7.9 3.1 8.4 3.1 1.3 0 7.5-17.1 6.5-18-0.4-0.4-3.5-1.6-6.9-2.8-5.7-2.1-12.3-2.7-15.2-1.5z"/>
      <path d="m544.5 1045.2c-1 4.7-2.5 14.1-2.2 14.4 0.1 0.1 3.6 0.8 7.8 1.5 6.2 1 8.2 1 10.7 0 6.1-2.5 6.3-12.6 0.4-14.9-4.4-1.8-10.5-3.2-13.4-3.2-2.1 0-2.9 0.6-3.3 2.2z"/>
      <path d="m668.7 1047c-3.2 0.4-6 1-6.3 1.3-0.4 0.3-0.3 3.8 0.1 7.6l0.7 7.1h3.2c6.7-0.1 19.1-2.9 20.3-4.6 2-2.7 1.6-8.1-0.7-10.4-2.2-2.2-6.3-2.4-17.3-1z"/>
    </g>
    <g transform="matrix(.31556 0 0 .31457 -4.9297 -2.4171)" fill="#f7ea5c">
      <path d="m532.7 362.03h164.58s1.9998 19.49-4.0781 29.572c-0.3546 0.36104-1.5 0.23437-1.5 0.23437l-0.3282-23.203-12.938-0.14063 0.2813 22.641-8.1563-1.4062-0.4687-21.047h-13.561v20.131l-8.5516-0.39774-0.464-20.02-13.523 0.33145 0.5966 19.158-7.9549-0.19887-0.1326-19.092-12.927 0.0663 0.1988 19.357-12.869-0.11683-0.375-19.125h-13.078l0.4218 19.734-9.4687 0.23438 0.2344-19.875-13.258-0.0101 0.464 21.876-8.419 0.92808-0.066-23.069-12.529 0.26516-0.2652 25.191s-2.6233 0.90786-4.0438 0.46404c-9.6332-7.7358-8.1481-32.442-8.1481-32.442z" stroke-width=".18075" style="paint-order:fill markers stroke"/>
      <path d="m620.11 391.62c-90.714-1e-5 -116.95 16.488-116.95 44.457 0 19.281 15.153 31.195 41.087 37.9 0.3132-0.18519 5.367-3.1213 9.3647-2.1108 3.9361 0.99491 4.7879 4.7409 4.8589 5.0874 8.626 1.4583 18.072 2.5204 28.31 3.2022 0.08-0.1401 4.4347-7.7565 8.7744-11.884-8.8094-5.1415-15.787-23.554-15.341-35.19 0.5743-14.988 7.0666-30.141 12.141-34.976 2.22-2.1154 5.2338-3.1666 7.7944-3.1274 3.2923 0.0503 5.8348 1.9031 4.9776 5.6162-1.5238 6.601-8.3423 16.667-8.1797 28.446 0.092 6.6332 2.8876 14.233 9.6826 25.373 2.5396 4.1626 1.5845 11.403-2.2383 14.043 0.7772 2.028 0.234 4.8866-1.0869 7.6626-0.968 2.0343-1.7187 3.5549-2.3101 4.7358 6.1773 0.20835 12.507 0.34277 19.119 0.34277 3.9469 0 7.7553-0.0653 11.496-0.16113-0.067-0.13371-4.6956-9.4415-3.2476-11.679 1.0333-1.5971 4.0244-2.2673 6.7456-1.7402-2.0432-3.3552-2.2313-8.5552-0.2226-11.848 6.8117-11.167 9.6141-18.785 9.706-25.434 0.163-11.807-6.6727-21.899-8.2002-28.516-0.8593-3.7223 1.6889-5.5804 4.9893-5.6309 2.5669-0.0393 5.5894 1.0157 7.8149 3.1362 5.0865 4.8469 11.594 20.038 12.17 35.062 0.5426 14.161-9.87 38.415-21.239 36.602 2.2213 2.9236 4.6687 7.521 5.6557 9.4365 3.564-0.21924 7.0606-0.46837 10.421-0.77637-0.1076-0.22991-3.1714-6.8345-0.684-8.2163 2.5308-1.4062 7.751-0.46773 10.547 3.1875 1.1937 1.5605 2.0089 2.7505 2.5708 3.6255 3.4826-0.4723 6.872-0.98282 10.094-1.5601 0.087-0.0966 0.1552-0.14355 0.1552-0.14355s2.9765-2.625 5.25-2.2734c1.8827 0.29115 2.5257 0.67077 2.6939 0.79395 3.5801-0.79772 7.0419-1.6405 10.242-2.5796-4.8248-1.9444-6.2007-9.5043-3.312-13.715 7.2007-10.497 10.164-17.658 10.261-23.909 0.1722-11.1-7.0542-20.586-8.669-26.807-1.6148-6.2207 8.1582-6.9016 13.535-2.3452 5.377 4.5564 12.257 18.837 12.866 32.96 0.3757 8.7181-4.2196 21.503-10.809 28.815 17.36-7.7157 26.123-18.298 26.123-30.741 0-32.044-26.3-45.12-116.95-45.12zm-51.29 5.7026c3.3239 0.0464 5.8913 1.7554 5.0259 5.1797-1.5386 6.0876-8.4243 15.37-8.2602 26.232 0.092 6.1172 2.9159 13.127 9.7763 23.399 2.7566 4.1275 1.4385 11.543-3.1758 13.431-12.232 5.0067-24.074-19.281-23.495-33.103 0.5798-13.822 7.1349-27.797 12.258-32.256 2.2413-1.9508 5.2854-2.9204 7.8706-2.8843zm103.96 1.2158c2.5915-0.0362 5.6413 0.93599 7.8881 2.8916 5.1355 4.47 11.707 18.479 12.289 32.335 0.5812 13.856-11.29 38.204-23.553 33.185-4.6256-1.8932-5.9465-9.3272-3.1831-13.465 6.8772-10.298 9.7072-17.323 9.7998-23.455 0.1645-10.889-6.7368-20.196-8.2793-26.298-0.8675-3.4327 1.707-5.1463 5.0391-5.1929zm-131.74 2.9941c3.4802 0.0473 6.1679 1.7888 5.2618 5.2793-1.6109 6.2053-8.8188 15.668-8.647 26.741 0.097 6.2355 3.0529 13.379 10.235 23.851 2.8861 4.2072 1.5061 11.765-3.3252 13.69-12.807 5.1035-25.206-19.654-24.599-33.743s7.4712-28.333 12.835-32.878c2.3466-1.9885 5.533-2.9767 8.2397-2.9399z" style="paint-order:fill markers stroke"/>
      <path d="m707.04 474.33s-6.4019 2.6893-16.15 4.9233c15.822 20.612 6.9564 46.611-3.0351 52.699-11.095 6.7605-12.107-3.1045-11.93-6.98 0.2286-4.9958 10.349-14.371 8.3642-27.212-0.8738-5.6546-2.6196-10.404-6.684-16.567-2.9745 0.75236-3.8959 1.2781-5.0816 1.645 9.3941 27.317-2.9015 42.106-12.026 47.375-5.2166 3.012-6.4913-3.8089-9.6342-7.7856 13.093-21.016 12.21-26.512 6.6123-38.836-1.7668 0.30512-6.5636 1.099-9.8189 1.4356 7.9324 36.333-10.98 51.876-16.636 49.982-3.8965-1.3052-6.36-9.9824-4.8486-12.951 6.7744-13.304 11.29-19.845 6.2343-37.512-14.746 0.2052-30.695-0.14152-31.923 0.2417-1.46 3.906-2.6788 12.05-1.5 18.844 1.2074 6.9578 7.9357 16.648 8.4375 20.531 0.5164 3.9956-1.6878 10.594-5.3437 11.062-3.6562 0.46875-10.028-4.9708-15.938-16.688-5.3438-10.594-0.4688-35.625-0.4688-35.625s-8.1562 0.1875-12.75-0.0937c-4.5937-0.28125-13.528-2.0845-13.528-2.0845s-3.4371 3.9477-5.5972 13.522c-1.6435 7.2844-1.4405 15.854 5.4375 24.938 6.156 8.1297-0.07 19.593-9.4687 18.938-8.0625-0.5625-18.932-15.467-19.594-27.188-1.3124-23.25 9.9375-33.844 9.9375-33.844s-5.2876-2.0372-7.9687-2.7188c-10.165 10.463-12.239 21.449-10.594 35.625 2.4375 21 28.781 30.469 28.781 30.469s26.258 383.44 31.958 401.2c5.7011 17.766 22.539 21.744 36.195 22.009 13.656 0.26516 30.886-9.9698 35.394-23.758 3.9452-14.117 30.5-399.58 31.295-399.84 0.7955-0.26516 20.949-9.0146 25.854-16.572 4.9056-7.5572 6.4959-15.38 6.6285-27.18 0.1325-11.8-10.611-22.003-10.611-22.003zm-61.301 98.625c1.2753-0.0976 2.6947 0.6611 3.2476 2.915 3.4321 13.99-3.7732 169.33-7.5776 248.51-2.34 48.703-3.4467 93.536-6.5274 107.11-0.5293 2.3322-5.0008 2.0441-5.7011-0.167-2.62-8.2729 0.3436-81.626 3.621-161.89 3.309-81.033 6.7896-163.62 6.9859-167.71 0.3977-8.2864 2.5349-25.992 4.0312-27.806 0.4427-0.5366 1.1553-0.90382 1.9204-0.9624zm-54.557 0.80859c0.7651 0.0586 1.4777 0.4258 1.9204 0.96241 1.4963 1.8137 3.6336 19.519 4.0313 27.806 0.1963 4.0893 3.6768 86.677 6.9858 167.71 3.2776 80.264 6.2411 153.62 3.6211 161.89-0.7003 2.2111-5.1719 2.4992-5.7012 0.16699-3.0807-13.574-4.1873-58.406-6.5273-107.11-3.8044-79.178-11.01-234.52-7.5777-248.51 0.553-2.2539 1.9724-3.0127 3.2476-2.915zm73.219 12.962c1.4981-0.1462 3.2432 0.45873 3.7412 2.4888 3.0911 12.601-4.5921 152.71-8.0186 224.02-2.1076 43.865-2.5423 81.192-6.8071 94.28-1.4704 4.5124-5.7192 3.4304-5.9971 0.64599-3.9681-39.759 9.4251-258.22 11.609-294.87 0.4444-7.4586 2.0171-24.007 3.3647-25.641 0.3988-0.4833 1.2091-0.84099 2.108-0.92871zm-91.881 0.80859c0.8989 0.0877 1.7092 0.44541 2.1079 0.92871 1.3476 1.6335 2.9218 18.182 3.3662 25.641 2.1838 36.65 15.576 255.11 11.607 294.87-0.2779 2.7844-4.5266 3.8664-5.997-0.646-4.2648-13.088-4.6996-50.416-6.8072-94.28-3.4265-71.313-11.11-211.42-8.0185-224.02 0.498-2.03 2.2431-2.635 3.7412-2.4888z" style="paint-order:fill markers stroke"/>
    </g>
    <path d="m169.53 206.61-0.65085-7.5496s-0.65082 3.6273-0.11832 5.603c0.5325 1.9758 0.76917 1.9464 0.76917 1.9464z" fill="#019934" stroke-width=".31506" style="paint-order:fill markers stroke"/>
  </g>
</svg>
