<svg
  viewBox="0 0 18 19"
  fill="none"
  xmlns="http://www.w3.org/2000/svg"
>
  <path
    d="M7.50537 2.07795C6.4542 1.73767 5.31148 2.21099 4.80879 3.19492L4.20446 4.37779C4.13265 4.51834 4.01834 4.63265 3.87779 4.70446L2.69492 5.30879C1.71099 5.81148 1.23767 6.9542 1.57795 8.00537L1.98704 9.26912C2.03565 9.41927 2.03565 9.58097 1.98704 9.73112L1.57795 10.9949C1.23767 12.0461 1.71099 13.1888 2.69492 13.6915L3.87779 14.2958C4.01834 14.3676 4.13265 14.4819 4.20446 14.6225L4.80879 15.8054C5.31148 16.7893 6.4542 17.2626 7.50537 16.9223L8.76912 16.5132C8.91927 16.4646 9.08097 16.4646 9.23112 16.5132L10.4949 16.9223C11.5461 17.2626 12.6888 16.7893 13.1915 15.8054L13.7958 14.6225C13.8676 14.4819 13.9819 14.3676 14.1225 14.2958L15.3054 13.6915C16.2893 13.1888 16.7626 12.0461 16.4223 10.9949L16.0132 9.73112C15.9646 9.58097 15.9646 9.41927 16.0132 9.26912L16.4223 8.00537C16.7626 6.9542 16.2893 5.81148 15.3054 5.30879L14.1225 4.70446C13.9819 4.63265 13.8676 4.51834 13.7958 4.37779L13.1915 3.19492C12.6888 2.21099 11.5461 1.73767 10.4949 2.07795L9.23112 2.48704C9.08097 2.53564 8.91927 2.53565 8.76912 2.48704L7.50537 2.07795ZM5.06995 9.3181L6.13061 8.25737L8.25192 10.3787L12.4946 6.13611L13.5552 7.19677L8.25192 12.5L5.06995 9.3181Z"
    fill="currentColor"
  />
</svg>
